<svg width="161" height="87" viewBox="0 0 161 87" fill="none" xmlns="http://www.w3.org/2000/svg">
<path d="M88.5116 82.8205C89.386 82.6148 90.1713 82.765 90.9838 83.0668C97.7619 85.5874 104.756 86.8024 111.998 86.7033C120.575 86.5861 129.017 85.7921 137.193 82.9284C141.483 81.427 145.699 79.7853 149.741 77.7059C150.201 77.4696 150.695 76.9592 151.211 77.3326C151.872 77.8092 151.342 78.4612 151.211 79.0174C150.874 80.4379 150.4 81.829 150.147 83.2645C149.957 84.3457 150.68 85.518 151.461 85.7141C152.53 85.9848 152.95 85.16 153.423 84.4639C153.64 84.1481 153.852 83.824 154.039 83.4895C156.138 79.7326 158.218 75.9642 160.337 72.2157C161.128 70.8126 161.253 69.4363 160.307 68.0965C159.381 66.7832 158.035 66.6919 156.582 66.957C151.512 67.8739 146.438 68.7646 141.365 69.6791C140.687 69.8015 140.006 69.9662 139.364 70.2084C138.694 70.4616 138.118 70.9053 138.166 71.724C138.215 72.5635 138.862 72.8801 139.577 73.007C140.254 73.1285 140.955 73.1255 141.636 73.2343C142.364 73.3469 143.157 73.1227 143.867 73.6113C143.529 74.3854 142.801 74.4714 142.199 74.7364C134.009 78.3368 125.418 80.2465 116.503 80.6866C110.962 80.9604 105.429 80.9561 99.9916 79.5987C99.5188 79.4794 98.8598 79.5952 98.7414 78.7381C101.015 77.2151 103.215 75.549 105.295 73.7209C117.222 63.2342 115.83 45.7173 105.478 36.8224C103.31 34.9599 101.101 33.1349 98.5685 31.8375C91.9601 28.456 84.9921 27.7026 78.0062 30.2706C64.7547 35.1475 61.9831 50.8128 65.2379 59.6725C67.692 66.3601 72.192 71.5627 77.7927 75.863C78.6868 76.5502 79.7557 77.0223 80.5775 77.9933C80.0122 78.4622 79.6153 78.4466 79.2392 78.4632C73.5851 78.7064 68.011 78.1589 62.5903 76.5097C50.4083 72.8003 39.6225 66.5226 30.0592 58.1985C23.7613 52.7183 18.5847 46.1815 13.9709 39.2455C7.97118 30.2127 3.84593 20.4299 2.69832 9.5416C2.42021 6.91423 2.33856 4.30859 3.86422 1.95772C4.15619 1.50797 4.60287 1.01529 4.04031 0.548111C3.43543 0.0464443 2.88872 0.484956 2.42069 0.909286C1.89539 1.38305 1.57591 1.99721 1.27705 2.6257C0.572807 4.10946 0.243142 5.68515 0.19066 7.31315C-0.0509311 14.8176 1.4104 22.0392 4.36319 28.8896C10.942 44.1387 20.5698 57.1595 33.7413 67.3422C43.1348 74.6079 53.4583 80.1897 65.198 82.7304C72.9498 84.4106 80.7357 84.6616 88.5116 82.8205ZM88.5961 75.5128C82.057 72.182 76.382 67.9042 72.2888 61.6535C67.8762 54.9159 68.4966 45.0567 73.9078 39.1774C76.9393 35.8842 80.7926 34.296 85.1808 34.1728C89.9763 34.0393 94.4727 35.1511 98.3963 38.1081C101.488 40.4388 104.36 42.9535 106.136 46.4962C106.902 48.0248 107.37 49.6372 107.56 51.0561C108.874 58.0153 107.166 63.7926 102.303 68.6044C99.3793 71.4961 96.1024 73.8618 92.3384 75.5452C91.0691 76.1139 89.8909 76.1699 88.5961 75.5128Z" fill="#1F2148"/>
</svg>
