<svg width="148" height="241" viewBox="0 0 148 241" fill="none" xmlns="http://www.w3.org/2000/svg">
<path d="M51.8543 176.26C53.0489 176.857 53.8026 177.776 54.4433 178.894C59.7851 188.225 66.6161 196.27 74.9807 203.05C84.8878 211.081 95.286 218.211 107.348 222.722C113.677 225.091 120.056 227.23 126.651 228.703C127.401 228.871 128.452 228.759 128.685 229.676C128.986 230.849 127.761 231.09 127.081 231.6C125.345 232.902 123.479 234.039 121.824 235.438C120.577 236.492 120.287 238.519 120.993 239.486C121.956 240.813 123.22 240.27 124.423 239.926C124.971 239.772 125.522 239.604 126.054 239.399C132.028 237.107 137.99 234.783 143.978 232.519C146.217 231.669 147.67 230.216 147.865 227.786C148.058 225.405 146.608 224.019 144.695 222.939C138.033 219.16 131.39 215.347 124.726 211.563C123.834 211.056 122.901 210.597 121.937 210.262C120.93 209.913 119.85 209.872 119.126 210.853C118.383 211.858 118.82 212.836 119.516 213.661C120.174 214.445 120.977 215.108 121.651 215.881C122.375 216.702 123.494 217.201 123.84 218.435C122.717 218.997 121.804 218.403 120.864 218.132C108.084 214.448 96.4545 208.452 85.8531 200.467C79.2651 195.506 72.9498 190.234 68.0321 183.508C67.6058 182.922 66.7429 182.427 67.4235 181.335C71.4699 181.76 75.568 181.951 79.6839 181.843C103.288 181.22 118.373 159.89 115.017 139.877C114.314 135.687 113.528 131.499 111.871 127.607C107.542 117.455 100.302 109.961 89.8788 106.244C70.1024 99.1999 52.0253 114.452 47.309 127.669C43.7458 137.643 43.9326 147.868 46.2357 158.11C46.6026 159.746 47.3738 161.303 47.3882 163.194C46.2962 163.192 45.8578 162.796 45.4125 162.457C38.7236 157.352 32.8788 151.421 28.2579 144.378C17.8762 128.545 11.5339 111.109 8.53577 92.4988C6.55983 80.2451 6.87011 67.8521 8.20322 55.5388C9.94952 39.5117 14.5505 24.4122 23.6044 10.8847C25.7878 7.61937 28.1749 4.56585 32.1551 3.33328C32.9166 3.09757 33.8958 2.96009 33.698 1.89104C33.4847 0.742313 32.4429 0.722713 31.5045 0.761803C30.4536 0.802835 29.5041 1.20013 28.5645 1.63342C26.3478 2.65761 24.4714 4.14333 22.8618 5.95266C15.4424 14.2933 10.2371 23.9318 7.08844 34.5662C0.0862073 58.244 -1.31273 82.2792 4.03705 106.447C7.84882 123.686 14.3255 139.888 25.3145 153.964C32.5682 163.262 41.2213 170.96 51.8543 176.26ZM58.9071 167.994C54.6096 157.966 52.2005 147.678 53.4758 136.643C54.8499 124.748 64.9434 114.079 76.7199 112.515C83.3169 111.64 89.2294 113.494 94.3582 117.53C99.962 121.943 104.039 127.493 105.705 134.604C107.017 140.209 107.904 145.815 106.56 151.552C105.979 154.027 104.979 156.314 103.845 158.115C98.7222 167.314 91.2719 172.286 81.137 173.152C75.0457 173.671 69.0513 173.254 63.1503 171.594C61.1592 171.035 59.7603 169.977 58.9071 167.994Z" fill="#1F2148"/>
</svg>
