<svg version="1.2" xmlns="http://www.w3.org/2000/svg" viewBox="0 0 59 63" width="56" height="60">
	<title>Connect-icon-svg</title>
	<style>
		.s0 { fill: #13aaa1 } 
		.s1 { fill: #1f2148;stroke: #1f2148;stroke-width: .4 } 
	</style>
	<path id="Layer" class="s0" d="m38 42c-11.6 0-21-9.4-21-21 0-11.6 9.4-21 21-21 11.6 0 21 9.4 21 21 0 11.6-9.4 21-21 21z"/>
	<path id="Layer" fill-rule="evenodd" class="s1" d="m43.4 38.3q-0.9-0.9-1.4-2.1l-8.5-0.8c-0.5 2.2-1.8 4.1-3.7 5.3l1.2 8.5c5 1.1 7 7.4 3.3 11.1-1.2 1.2-2.8 1.9-4.7 1.9-1.4 0-2.6-0.5-3.4-1q-0.5-0.3-0.9-0.6-0.1-0.2-0.2-0.2 0-0.1 0-0.1h-0.1c-3.6-3.6-1.8-9.7 2.9-11l-1-7.4c-2.7 0.5-5.4-0.4-7.4-2.2l-8.1 2.6c0 1.4-0.5 2.5-1.3 3.2-0.8 0.7-1.9 1.1-2.9 1.1-1.1 0-2.2-0.3-3-1.1-0.8-0.7-1.3-1.8-1.3-3.2 0-2.2 1.3-3.6 2.9-4.1 1.6-0.5 3.4-0.1 4.6 1.3l7.3-2.5c-1.1-2.7-0.7-5.8 1-8.2l-4.4-4.7c-5.8 3.6-13.5-0.5-13.5-7.5 0-7.8 9.5-11.7 15-6.2 3.2 3.1 3.5 8.1 0.8 11.6l4.4 4.8c2-1.4 4.6-1.7 7-0.9l2.6-6.3c-1.3-1.2-1.6-2.9-1.2-4.4 0.5-1.6 1.8-2.9 3.9-2.9 1.4 0 2.4 0.5 3.1 1.3 0.7 0.8 1 1.8 1 2.9 0 1-0.3 2-1 2.8-0.7 0.8-1.7 1.2-3 1.3l-2.8 6.8c1.6 1.2 2.6 3 2.9 5l8 0.7c0.5-5.6 7.4-8 11.2-4l-0.1 0.1 0.1-0.1-2.2 2.2q0-0.1 0-0.1c-0.8-0.8-1.8-1.1-2.6-1.1-0.9 0.1-1.7 0.5-2.3 1.1-0.7 0.6-1.1 1.5-1.1 2.3-0.1 0.9 0.2 1.8 1 2.6q0.1 0.1 0.1 0.1l-2.1 2.1q-0.1 0-0.1 0 0 0 0 0 0 0 0 0 0 0 0 0 0 0 0 0 0 0 0 0 0 0 0 0 0.1 0.1 0.1 0.1 0 0 0.2 0.2 0.3 0.3 0.9 0.6c0.8 0.5 1.9 1 3.4 1 5.6 0 8.8-6.8 4.7-11.1q0 0 0 0 0 0 0 0m-32.6 4.7c0 1.4 0.6 2.7 1.6 3.7v0.1q0 0 0 0 0.1 0 0.2 0.1 0.1 0.2 0.5 0.4c0.4 0.2 1 0.5 1.8 0.7 1.4 0.4 3.2 0.3 4.9-1.3 2.1-2.1 1.9-5.6 0-7.4-3.3-3.3-9-1-9 3.7zm9.4 18.3c-0.8 0.1-1.7 0.5-2.3 1.1-0.6 0.6-1 1.5-1.1 2.3 0 0.9 0.3 1.8 1.1 2.6 2.2 2.2 5.9 0.7 5.9-2.4 0-1-0.4-1.9-1-2.5-0.8-0.8-1.7-1.1-2.6-1.1zm-22.8-10.9c-0.3 0.1-0.6 0.3-0.7 0.6-0.1 0.3-0.1 0.6 0 1.1 0.3 0.6 1 0.8 1.6 0.6 0.3-0.2 0.5-0.4 0.6-0.7 0.2-0.2 0.2-0.6 0-1-0.2-0.7-0.9-0.9-1.5-0.6zm7-28.7c-3.6-3.5-9.8-1-9.8 4.1 0 5.1 6.2 7.7 9.8 4.1 2.2-2.3 2.2-5.9 0-8.2zm18.9 3.1q-0.2 0.3-0.3 0.6c-0.1 0.5 0.1 1 0.6 1.2 0.5 0.1 0.9 0 1.1-0.1 0.2-0.2 0.4-0.4 0.4-0.7 0-0.6-0.4-1.2-1.1-1.2q-0.4 0-0.7 0.2z"/>
</svg>