<svg width="184" height="185" viewBox="0 0 184 185" fill="none" xmlns="http://www.w3.org/2000/svg">
<g filter="url(#filter0_d_15_385)">
<g filter="url(#filter1_ii_15_385)">
<rect x="57.7441" y="0.916992" width="100" height="100" rx="22.4532" transform="rotate(15.963 57.7441 0.916992)" fill="url(#paint0_linear_15_385)"/>
<rect x="57.7441" y="0.916992" width="100" height="100" rx="22.4532" transform="rotate(15.963 57.7441 0.916992)" fill="url(#paint1_linear_15_385)" fill-opacity="0.2" style="mix-blend-mode:soft-light"/>
</g>
<g filter="url(#filter2_dii_15_385)">
<rect x="74.957" y="27.6968" width="52.1739" height="57.971" rx="4.49065" transform="rotate(15.963 74.957 27.6968)" fill="white"/>
</g>
<g filter="url(#filter3_diii_15_385)">
<path fill-rule="evenodd" clip-rule="evenodd" d="M87.2507 70.2203L75.7234 66.9229L77.4813 60.7772L87.7131 63.704C88.3236 63.8786 88.8409 63.6071 89.1891 63.2497C89.5315 62.8984 89.7709 62.4148 89.9015 61.9581C90.0345 61.4932 90.0722 60.9649 89.9541 60.4984C89.8341 60.0241 89.5294 59.5516 88.9484 59.3854L78.7166 56.4586L80.4176 50.5123L91.6791 53.7336C92.2544 53.8982 92.7565 53.6429 93.0993 53.3026C93.44 52.9645 93.6879 52.4903 93.8249 52.0114C93.9557 51.5543 94.0057 51.0255 93.9026 50.5558C93.798 50.0795 93.5093 49.5852 92.9144 49.415L80.3241 45.8136C79.145 45.4763 78.1348 45.4033 77.3138 45.8545C76.4916 46.3065 76.01 47.201 75.6674 48.3988L70.5645 66.2379C70.226 67.4213 70.1634 68.4329 70.619 69.2536C71.0746 70.0744 71.9664 70.5561 73.1497 70.8946L86.0059 74.5721C86.6213 74.7481 87.1326 74.4686 87.4725 74.1055C87.8047 73.7507 88.0326 73.266 88.1611 72.8167C88.2941 72.3519 88.3329 71.82 88.2252 71.3524C88.118 70.8866 87.8339 70.3871 87.2507 70.2203ZM95.9137 75.6452L98.4042 66.9387L98.405 66.9359C98.7597 65.6396 99.6334 64.6868 100.666 64.1229C101.708 63.5539 102.87 63.4036 103.763 63.6589C104.937 63.9947 105.57 64.5483 105.855 65.3064C106.155 66.1054 106.115 67.2444 105.66 68.8375L103.122 77.7073C102.947 78.3199 103.225 78.8546 103.592 79.2204C103.957 79.5856 104.47 79.8536 104.982 80.0002C105.509 80.1508 106.099 80.1993 106.613 80.0884C107.124 79.9781 107.662 79.6783 107.84 79.0566L107.84 79.0549L110.638 69.1476L110.638 69.1466C111.319 66.7655 111.28 64.7354 110.485 63.1302C109.686 61.5148 108.171 60.4277 106.113 59.839C103.912 59.2095 101.666 59.7375 99.9534 60.7691L100.143 60.1077C100.316 59.4999 100.043 58.9683 99.7036 58.6104C99.3634 58.252 98.8927 57.9892 98.4489 57.8623C97.9365 57.7157 97.3539 57.6704 96.8449 57.7829C96.3388 57.8947 95.8022 58.1947 95.6246 58.8154L91.1965 74.2959C91.0189 74.9166 91.3158 75.455 91.6861 75.8175C92.0587 76.1821 92.5772 76.4518 93.0895 76.5983C93.6162 76.749 94.2003 76.7956 94.7085 76.6807C95.2181 76.5655 95.7382 76.2588 95.9137 75.6452ZM99.0395 62.0881C99.2548 61.8924 99.4878 61.7053 99.7358 61.5297C101.051 60.5986 102.789 59.988 104.578 60.0989C102.451 59.9678 100.395 60.8568 99.0386 62.0914L99.0395 62.0881ZM105.835 79.6251C105.6 79.6105 105.359 79.5684 105.127 79.5021C104.23 79.2455 103.414 78.5808 103.623 77.8499L106.16 68.9802C107.092 65.7247 106.466 63.8925 103.908 63.1608C103.656 63.0888 103.389 63.0448 103.114 63.0281C103.389 63.0449 103.654 63.0888 103.905 63.1606C106.463 63.8923 107.089 65.7245 106.158 68.9801L103.621 77.8498C103.412 78.5806 104.228 79.2453 105.125 79.5019C105.357 79.5685 105.599 79.6107 105.835 79.6251ZM96.1229 58.9579C96.281 58.4052 96.9359 58.2001 97.6336 58.244C96.9368 58.2007 96.2834 58.406 96.1254 58.9581L91.6973 74.4386C91.4882 75.1694 92.3376 75.8436 93.2345 76.1002C93.4648 76.1661 93.7021 76.2075 93.932 76.2215C93.7013 76.2076 93.4632 76.1661 93.232 76.1C92.3351 75.8435 91.4857 75.1692 91.6948 74.4384L96.1229 58.9579ZM77.1279 60.1371L77.1281 60.1366L87.8581 63.2058C87.9202 63.2236 87.9813 63.2341 88.0412 63.2379C87.9805 63.2342 87.9185 63.2237 87.8556 63.2057L77.1279 60.1371ZM86.1484 74.0738C86.2102 74.0915 86.2708 74.1018 86.33 74.1055C86.2716 74.1017 86.2118 74.0914 86.1509 74.0739L73.2948 70.3965C71.0026 69.7408 70.4097 68.6728 71.0654 66.3806L76.1682 48.5415C76.6912 46.7131 77.4574 45.9763 78.8752 46.0636C77.4558 45.9753 76.689 46.7119 76.1657 48.5413L71.0628 66.3804C70.4072 68.6726 71.0001 69.7407 73.2923 70.3963L86.1484 74.0738ZM91.8217 53.2353C91.8779 53.2514 91.9337 53.2609 91.9888 53.2644C91.9345 53.2608 91.8795 53.2513 91.8242 53.2355L80.0643 49.8716L80.0642 49.8721L91.8217 53.2353Z" fill="#0047FF"/>
<path fill-rule="evenodd" clip-rule="evenodd" d="M87.2507 70.2203L75.7234 66.9229L77.4813 60.7772L87.7131 63.704C88.3236 63.8786 88.8409 63.6071 89.1891 63.2497C89.5315 62.8984 89.7709 62.4148 89.9015 61.9581C90.0345 61.4932 90.0722 60.9649 89.9541 60.4984C89.8341 60.0241 89.5294 59.5516 88.9484 59.3854L78.7166 56.4586L80.4176 50.5123L91.6791 53.7336C92.2544 53.8982 92.7565 53.6429 93.0993 53.3026C93.44 52.9645 93.6879 52.4903 93.8249 52.0114C93.9557 51.5543 94.0057 51.0255 93.9026 50.5558C93.798 50.0795 93.5093 49.5852 92.9144 49.415L80.3241 45.8136C79.145 45.4763 78.1348 45.4033 77.3138 45.8545C76.4916 46.3065 76.01 47.201 75.6674 48.3988L70.5645 66.2379C70.226 67.4213 70.1634 68.4329 70.619 69.2536C71.0746 70.0744 71.9664 70.5561 73.1497 70.8946L86.0059 74.5721C86.6213 74.7481 87.1326 74.4686 87.4725 74.1055C87.8047 73.7507 88.0326 73.266 88.1611 72.8167C88.2941 72.3519 88.3329 71.82 88.2252 71.3524C88.118 70.8866 87.8339 70.3871 87.2507 70.2203ZM95.9137 75.6452L98.4042 66.9387L98.405 66.9359C98.7597 65.6396 99.6334 64.6868 100.666 64.1229C101.708 63.5539 102.87 63.4036 103.763 63.6589C104.937 63.9947 105.57 64.5483 105.855 65.3064C106.155 66.1054 106.115 67.2444 105.66 68.8375L103.122 77.7073C102.947 78.3199 103.225 78.8546 103.592 79.2204C103.957 79.5856 104.47 79.8536 104.982 80.0002C105.509 80.1508 106.099 80.1993 106.613 80.0884C107.124 79.9781 107.662 79.6783 107.84 79.0566L107.84 79.0549L110.638 69.1476L110.638 69.1466C111.319 66.7655 111.28 64.7354 110.485 63.1302C109.686 61.5148 108.171 60.4277 106.113 59.839C103.912 59.2095 101.666 59.7375 99.9534 60.7691L100.143 60.1077C100.316 59.4999 100.043 58.9683 99.7036 58.6104C99.3634 58.252 98.8927 57.9892 98.4489 57.8623C97.9365 57.7157 97.3539 57.6704 96.8449 57.7829C96.3388 57.8947 95.8022 58.1947 95.6246 58.8154L91.1965 74.2959C91.0189 74.9166 91.3158 75.455 91.6861 75.8175C92.0587 76.1821 92.5772 76.4518 93.0895 76.5983C93.6162 76.749 94.2003 76.7956 94.7085 76.6807C95.2181 76.5655 95.7382 76.2588 95.9137 75.6452ZM99.0395 62.0881C99.2548 61.8924 99.4878 61.7053 99.7358 61.5297C101.051 60.5986 102.789 59.988 104.578 60.0989C102.451 59.9678 100.395 60.8568 99.0386 62.0914L99.0395 62.0881ZM105.835 79.6251C105.6 79.6105 105.359 79.5684 105.127 79.5021C104.23 79.2455 103.414 78.5808 103.623 77.8499L106.16 68.9802C107.092 65.7247 106.466 63.8925 103.908 63.1608C103.656 63.0888 103.389 63.0448 103.114 63.0281C103.389 63.0449 103.654 63.0888 103.905 63.1606C106.463 63.8923 107.089 65.7245 106.158 68.9801L103.621 77.8498C103.412 78.5806 104.228 79.2453 105.125 79.5019C105.357 79.5685 105.599 79.6107 105.835 79.6251ZM96.1229 58.9579C96.281 58.4052 96.9359 58.2001 97.6336 58.244C96.9368 58.2007 96.2834 58.406 96.1254 58.9581L91.6973 74.4386C91.4882 75.1694 92.3376 75.8436 93.2345 76.1002C93.4648 76.1661 93.7021 76.2075 93.932 76.2215C93.7013 76.2076 93.4632 76.1661 93.232 76.1C92.3351 75.8435 91.4857 75.1692 91.6948 74.4384L96.1229 58.9579ZM77.1279 60.1371L77.1281 60.1366L87.8581 63.2058C87.9202 63.2236 87.9813 63.2341 88.0412 63.2379C87.9805 63.2342 87.9185 63.2237 87.8556 63.2057L77.1279 60.1371ZM86.1484 74.0738C86.2102 74.0915 86.2708 74.1018 86.33 74.1055C86.2716 74.1017 86.2118 74.0914 86.1509 74.0739L73.2948 70.3965C71.0026 69.7408 70.4097 68.6728 71.0654 66.3806L76.1682 48.5415C76.6912 46.7131 77.4574 45.9763 78.8752 46.0636C77.4558 45.9753 76.689 46.7119 76.1657 48.5413L71.0628 66.3804C70.4072 68.6726 71.0001 69.7407 73.2923 70.3963L86.1484 74.0738ZM91.8217 53.2353C91.8779 53.2514 91.9337 53.2609 91.9888 53.2644C91.9345 53.2608 91.8795 53.2513 91.8242 53.2355L80.0643 49.8716L80.0642 49.8721L91.8217 53.2353Z" fill="url(#paint2_linear_15_385)"/>
<path fill-rule="evenodd" clip-rule="evenodd" d="M87.2507 70.2203L75.7234 66.9229L77.4813 60.7772L87.7131 63.704C88.3236 63.8786 88.8409 63.6071 89.1891 63.2497C89.5315 62.8984 89.7709 62.4148 89.9015 61.9581C90.0345 61.4932 90.0722 60.9649 89.9541 60.4984C89.8341 60.0241 89.5294 59.5516 88.9484 59.3854L78.7166 56.4586L80.4176 50.5123L91.6791 53.7336C92.2544 53.8982 92.7565 53.6429 93.0993 53.3026C93.44 52.9645 93.6879 52.4903 93.8249 52.0114C93.9557 51.5543 94.0057 51.0255 93.9026 50.5558C93.798 50.0795 93.5093 49.5852 92.9144 49.415L80.3241 45.8136C79.145 45.4763 78.1348 45.4033 77.3138 45.8545C76.4916 46.3065 76.01 47.201 75.6674 48.3988L70.5645 66.2379C70.226 67.4213 70.1634 68.4329 70.619 69.2536C71.0746 70.0744 71.9664 70.5561 73.1497 70.8946L86.0059 74.5721C86.6213 74.7481 87.1326 74.4686 87.4725 74.1055C87.8047 73.7507 88.0326 73.266 88.1611 72.8167C88.2941 72.3519 88.3329 71.82 88.2252 71.3524C88.118 70.8866 87.8339 70.3871 87.2507 70.2203ZM95.9137 75.6452L98.4042 66.9387L98.405 66.9359C98.7597 65.6396 99.6334 64.6868 100.666 64.1229C101.708 63.5539 102.87 63.4036 103.763 63.6589C104.937 63.9947 105.57 64.5483 105.855 65.3064C106.155 66.1054 106.115 67.2444 105.66 68.8375L103.122 77.7073C102.947 78.3199 103.225 78.8546 103.592 79.2204C103.957 79.5856 104.47 79.8536 104.982 80.0002C105.509 80.1508 106.099 80.1993 106.613 80.0884C107.124 79.9781 107.662 79.6783 107.84 79.0566L107.84 79.0549L110.638 69.1476L110.638 69.1466C111.319 66.7655 111.28 64.7354 110.485 63.1302C109.686 61.5148 108.171 60.4277 106.113 59.839C103.912 59.2095 101.666 59.7375 99.9534 60.7691L100.143 60.1077C100.316 59.4999 100.043 58.9683 99.7036 58.6104C99.3634 58.252 98.8927 57.9892 98.4489 57.8623C97.9365 57.7157 97.3539 57.6704 96.8449 57.7829C96.3388 57.8947 95.8022 58.1947 95.6246 58.8154L91.1965 74.2959C91.0189 74.9166 91.3158 75.455 91.6861 75.8175C92.0587 76.1821 92.5772 76.4518 93.0895 76.5983C93.6162 76.749 94.2003 76.7956 94.7085 76.6807C95.2181 76.5655 95.7382 76.2588 95.9137 75.6452ZM99.0395 62.0881C99.2548 61.8924 99.4878 61.7053 99.7358 61.5297C101.051 60.5986 102.789 59.988 104.578 60.0989C102.451 59.9678 100.395 60.8568 99.0386 62.0914L99.0395 62.0881ZM105.835 79.6251C105.6 79.6105 105.359 79.5684 105.127 79.5021C104.23 79.2455 103.414 78.5808 103.623 77.8499L106.16 68.9802C107.092 65.7247 106.466 63.8925 103.908 63.1608C103.656 63.0888 103.389 63.0448 103.114 63.0281C103.389 63.0449 103.654 63.0888 103.905 63.1606C106.463 63.8923 107.089 65.7245 106.158 68.9801L103.621 77.8498C103.412 78.5806 104.228 79.2453 105.125 79.5019C105.357 79.5685 105.599 79.6107 105.835 79.6251ZM96.1229 58.9579C96.281 58.4052 96.9359 58.2001 97.6336 58.244C96.9368 58.2007 96.2834 58.406 96.1254 58.9581L91.6973 74.4386C91.4882 75.1694 92.3376 75.8436 93.2345 76.1002C93.4648 76.1661 93.7021 76.2075 93.932 76.2215C93.7013 76.2076 93.4632 76.1661 93.232 76.1C92.3351 75.8435 91.4857 75.1692 91.6948 74.4384L96.1229 58.9579ZM77.1279 60.1371L77.1281 60.1366L87.8581 63.2058C87.9202 63.2236 87.9813 63.2341 88.0412 63.2379C87.9805 63.2342 87.9185 63.2237 87.8556 63.2057L77.1279 60.1371ZM86.1484 74.0738C86.2102 74.0915 86.2708 74.1018 86.33 74.1055C86.2716 74.1017 86.2118 74.0914 86.1509 74.0739L73.2948 70.3965C71.0026 69.7408 70.4097 68.6728 71.0654 66.3806L76.1682 48.5415C76.6912 46.7131 77.4574 45.9763 78.8752 46.0636C77.4558 45.9753 76.689 46.7119 76.1657 48.5413L71.0628 66.3804C70.4072 68.6726 71.0001 69.7407 73.2923 70.3963L86.1484 74.0738ZM91.8217 53.2353C91.8779 53.2514 91.9337 53.2609 91.9888 53.2644C91.9345 53.2608 91.8795 53.2513 91.8242 53.2355L80.0643 49.8716L80.0642 49.8721L91.8217 53.2353Z" fill="url(#paint3_linear_15_385)" fill-opacity="0.7"/>
</g>
</g>
<defs>
<filter id="filter0_d_15_385" x="0.669922" y="1.34521" width="182.791" height="182.789" filterUnits="userSpaceOnUse" color-interpolation-filters="sRGB">
<feFlood flood-opacity="0" result="BackgroundImageFix"/>
<feColorMatrix in="SourceAlpha" type="matrix" values="0 0 0 0 0 0 0 0 0 0 0 0 0 0 0 0 0 0 127 0" result="hardAlpha"/>
<feOffset dy="30"/>
<feGaussianBlur stdDeviation="17.5"/>
<feColorMatrix type="matrix" values="0 0 0 0 0.0980392 0 0 0 0 0.631373 0 0 0 0 0.658824 0 0 0 0.43 0"/>
<feBlend mode="normal" in2="BackgroundImageFix" result="effect1_dropShadow_15_385"/>
<feBlend mode="normal" in="SourceGraphic" in2="effect1_dropShadow_15_385" result="shape"/>
</filter>
<filter id="filter1_ii_15_385" x="34.8639" y="5.53915" width="114.403" height="114.401" filterUnits="userSpaceOnUse" color-interpolation-filters="sRGB">
<feFlood flood-opacity="0" result="BackgroundImageFix"/>
<feBlend mode="normal" in="SourceGraphic" in2="BackgroundImageFix" result="shape"/>
<feColorMatrix in="SourceAlpha" type="matrix" values="0 0 0 0 0 0 0 0 0 0 0 0 0 0 0 0 0 0 127 0" result="hardAlpha"/>
<feOffset dx="0.806063" dy="0.806063"/>
<feGaussianBlur stdDeviation="0.403031"/>
<feComposite in2="hardAlpha" operator="arithmetic" k2="-1" k3="1"/>
<feColorMatrix type="matrix" values="0 0 0 0 1 0 0 0 0 1 0 0 0 0 1 0 0 0 0.2 0"/>
<feBlend mode="normal" in2="shape" result="effect1_innerShadow_15_385"/>
<feColorMatrix in="SourceAlpha" type="matrix" values="0 0 0 0 0 0 0 0 0 0 0 0 0 0 0 0 0 0 127 0" result="hardAlpha"/>
<feOffset dx="-0.806063" dy="-0.806063"/>
<feGaussianBlur stdDeviation="0.403031"/>
<feComposite in2="hardAlpha" operator="arithmetic" k2="-1" k3="1"/>
<feColorMatrix type="matrix" values="0 0 0 0 0 0 0 0 0 0 0 0 0 0 0 0 0 0 0.05 0"/>
<feBlend mode="normal" in2="effect1_innerShadow_15_385" result="effect2_innerShadow_15_385"/>
</filter>
<filter id="filter2_dii_15_385" x="47.201" y="20.7205" width="89.7308" height="93.7093" filterUnits="userSpaceOnUse" color-interpolation-filters="sRGB">
<feFlood flood-opacity="0" result="BackgroundImageFix"/>
<feColorMatrix in="SourceAlpha" type="matrix" values="0 0 0 0 0 0 0 0 0 0 0 0 0 0 0 0 0 0 127 0" result="hardAlpha"/>
<feMorphology radius="0.89813" operator="dilate" in="SourceAlpha" result="effect1_dropShadow_15_385"/>
<feOffset dy="4.83638"/>
<feGaussianBlur stdDeviation="5.98753"/>
<feColorMatrix type="matrix" values="0 0 0 0 0.654167 0 0 0 0 0 0 0 0 0 0.03925 0 0 0 0.6 0"/>
<feBlend mode="normal" in2="BackgroundImageFix" result="effect1_dropShadow_15_385"/>
<feBlend mode="normal" in="SourceGraphic" in2="effect1_dropShadow_15_385" result="shape"/>
<feColorMatrix in="SourceAlpha" type="matrix" values="0 0 0 0 0 0 0 0 0 0 0 0 0 0 0 0 0 0 127 0" result="hardAlpha"/>
<feOffset dy="-3.22425"/>
<feGaussianBlur stdDeviation="2.01516"/>
<feComposite in2="hardAlpha" operator="arithmetic" k2="-1" k3="1"/>
<feColorMatrix type="matrix" values="0 0 0 0 0.845833 0 0 0 0 0.00704861 0 0 0 0 0.00704861 0 0 0 0.3 0"/>
<feBlend mode="normal" in2="shape" result="effect2_innerShadow_15_385"/>
<feColorMatrix in="SourceAlpha" type="matrix" values="0 0 0 0 0 0 0 0 0 0 0 0 0 0 0 0 0 0 127 0" result="hardAlpha"/>
<feOffset dy="-1.20909"/>
<feGaussianBlur stdDeviation="0.806063"/>
<feComposite in2="hardAlpha" operator="arithmetic" k2="-1" k3="1"/>
<feColorMatrix type="matrix" values="0 0 0 0 1 0 0 0 0 1 0 0 0 0 1 0 0 0 0.75 0"/>
<feBlend mode="normal" in2="effect2_innerShadow_15_385" result="effect3_innerShadow_15_385"/>
</filter>
<filter id="filter3_diii_15_385" x="66.7262" y="41.9348" width="47.9597" height="44.185" filterUnits="userSpaceOnUse" color-interpolation-filters="sRGB">
<feFlood flood-opacity="0" result="BackgroundImageFix"/>
<feColorMatrix in="SourceAlpha" type="matrix" values="0 0 0 0 0 0 0 0 0 0 0 0 0 0 0 0 0 0 127 0" result="hardAlpha"/>
<feOffset dy="2.40217"/>
<feGaussianBlur stdDeviation="1.78436"/>
<feColorMatrix type="matrix" values="0 0 0 0 0.639132 0 0 0 0 0.75191 0 0 0 0 0.970833 0 0 0 0.6 0"/>
<feBlend mode="normal" in2="BackgroundImageFix" result="effect1_dropShadow_15_385"/>
<feBlend mode="normal" in="SourceGraphic" in2="effect1_dropShadow_15_385" result="shape"/>
<feColorMatrix in="SourceAlpha" type="matrix" values="0 0 0 0 0 0 0 0 0 0 0 0 0 0 0 0 0 0 127 0" result="hardAlpha"/>
<feOffset dy="-3.60326"/>
<feGaussianBlur stdDeviation="8.02964"/>
<feComposite in2="hardAlpha" operator="arithmetic" k2="-1" k3="1"/>
<feColorMatrix type="matrix" values="0 0 0 0 0.575 0 0 0 0 0.847 0 0 0 0 1 0 0 0 0.6 0"/>
<feBlend mode="normal" in2="shape" result="effect2_innerShadow_15_385"/>
<feColorMatrix in="SourceAlpha" type="matrix" values="0 0 0 0 0 0 0 0 0 0 0 0 0 0 0 0 0 0 127 0" result="hardAlpha"/>
<feOffset dy="-2.67655"/>
<feGaussianBlur stdDeviation="1.15984"/>
<feComposite in2="hardAlpha" operator="arithmetic" k2="-1" k3="1"/>
<feColorMatrix type="matrix" values="0 0 0 0 1 0 0 0 0 1 0 0 0 0 1 0 0 0 0.35 0"/>
<feBlend mode="normal" in2="effect2_innerShadow_15_385" result="effect3_innerShadow_15_385"/>
<feColorMatrix in="SourceAlpha" type="matrix" values="0 0 0 0 0 0 0 0 0 0 0 0 0 0 0 0 0 0 127 0" result="hardAlpha"/>
<feOffset dy="1.78436"/>
<feGaussianBlur stdDeviation="1.24905"/>
<feComposite in2="hardAlpha" operator="arithmetic" k2="-1" k3="1"/>
<feColorMatrix type="matrix" values="0 0 0 0 1 0 0 0 0 1 0 0 0 0 1 0 0 0 0.35 0"/>
<feBlend mode="normal" in2="effect3_innerShadow_15_385" result="effect4_innerShadow_15_385"/>
</filter>
<linearGradient id="paint0_linear_15_385" x1="107.744" y1="0.916992" x2="107.744" y2="100.917" gradientUnits="userSpaceOnUse">
<stop stop-color="#E2667A"/>
<stop offset="1" stop-color="#DB5F73"/>
</linearGradient>
<linearGradient id="paint1_linear_15_385" x1="107.744" y1="0.916992" x2="107.744" y2="100.917" gradientUnits="userSpaceOnUse">
<stop offset="0.328125" stop-color="white"/>
<stop offset="1" stop-opacity="0.1"/>
</linearGradient>
<linearGradient id="paint2_linear_15_385" x1="98.2313" y1="41.1916" x2="90.0747" y2="69.7064" gradientUnits="userSpaceOnUse">
<stop offset="0.00520833" stop-color="white" stop-opacity="0.08"/>
<stop offset="0.0851933" stop-opacity="0.08"/>
<stop offset="0.336988" stop-color="white" stop-opacity="0.1"/>
<stop offset="0.660917" stop-color="white" stop-opacity="0.1"/>
<stop offset="1" stop-opacity="0.1"/>
</linearGradient>
<linearGradient id="paint3_linear_15_385" x1="95.6258" y1="50.1906" x2="88.4514" y2="75.2716" gradientUnits="userSpaceOnUse">
<stop stop-color="#526EFF"/>
<stop offset="1" stop-color="white" stop-opacity="0"/>
</linearGradient>
</defs>
</svg>
