<svg width="26" height="20" viewBox="0 0 26 20" fill="none" xmlns="http://www.w3.org/2000/svg">
<path fill-rule="evenodd" clip-rule="evenodd" d="M1.89725 3.03668H23.8441C24.166 3.03668 24.4747 2.90882 24.7023 2.68122C24.9299 2.45361 25.0578 2.14491 25.0578 1.82303C25.0578 1.50115 24.9299 1.19244 24.7023 0.964839C24.4747 0.737235 24.166 0.609375 23.8441 0.609375H1.89725C1.57537 0.609375 1.26667 0.737235 1.03906 0.964839C0.811459 1.19244 0.683594 1.50115 0.683594 1.82303C0.683594 2.14491 0.811459 2.45361 1.03906 2.68122C1.26667 2.90882 1.57537 3.03668 1.89725 3.03668ZM23.8441 8.7004H6.54958C6.2277 8.7004 5.919 8.82826 5.6914 9.05586C5.46379 9.28347 5.33593 9.59217 5.33593 9.91405C5.33593 10.2359 5.46379 10.5446 5.6914 10.7722C5.919 10.9998 6.2277 11.1277 6.54958 11.1277H23.8441C24.166 11.1277 24.4747 10.9998 24.7023 10.7722C24.9299 10.5446 25.0578 10.2359 25.0578 9.91405C25.0578 9.59217 24.9299 9.28347 24.7023 9.05586C24.4747 8.82826 24.166 8.7004 23.8441 8.7004ZM23.8441 16.7914H1.89725C1.57537 16.7914 1.26667 16.9193 1.03906 17.1469C0.811459 17.3745 0.683594 17.6832 0.683594 18.0051C0.683594 18.327 0.811459 18.6357 1.03906 18.8633C1.26667 19.0909 1.57537 19.2187 1.89725 19.2187H23.8441C24.166 19.2187 24.4747 19.0909 24.7023 18.8633C24.9299 18.6357 25.0578 18.327 25.0578 18.0051C25.0578 17.6832 24.9299 17.3745 24.7023 17.1469C24.4747 16.9193 24.166 16.7914 23.8441 16.7914Z" fill="#1F2148"/>
</svg>
