<svg version="1.2" xmlns="http://www.w3.org/2000/svg" viewBox="0 0 67 52" width="77" height="60">
	<title>Move-icon-svg</title>
	<style>
		.s0 { fill: #13aaa1 } 
		.s1 { fill: #1f2148 } 
	</style>
	<path id="Layer" class="s0" d="m45 52c-11.6 0-21-9.4-21-21 0-11.6 9.4-21 21-21 11.6 0 21 9.4 21 21 0 11.6-9.4 21-21 21z"/>
	<path id="Layer" class="s1" d="m65.5 20.6l-16.6 16.5c-0.4 0.5-1 0.7-1.6 0.7-1.3 0-2.4-1-2.4-2.3v-7.1h-26c-1.3 0-2.4-1.1-2.4-2.4v-3.7l-10.8 10.8 10.8 10.8v-3.7c0-1.3 1.1-2.4 2.4-2.4h18.9c1.3 0 2.4 1.1 2.4 2.4 0 1.3-1.1 2.3-2.4 2.3h-16.5v7.1c0 1-0.6 1.9-1.5 2.2q-0.4 0.2-0.9 0.2c-0.6 0-1.2-0.2-1.7-0.7l-16.5-16.5c-0.9-1-0.9-2.5 0-3.4l16.5-16.5c0.5-0.5 1.1-0.7 1.7-0.7 1.3 0 2.4 1 2.4 2.3v7.1h26c1.3 0 2.3 1.1 2.3 2.4v3.7l10.9-10.8-10.9-10.8v3.7c0 1.3-1 2.4-2.3 2.4h-18.9c-1.3 0-2.4-1.1-2.4-2.4 0-1.3 1.1-2.3 2.4-2.3h16.5v-7.1c0-0.7 0.3-1.3 0.7-1.7 0.9-0.9 2.4-0.9 3.3 0l16.6 16.5c0.9 1 0.9 2.5 0 3.4z"/>
</svg>