<svg width="182" height="182" viewBox="0 0 182 182" fill="none" xmlns="http://www.w3.org/2000/svg">
<g filter="url(#filter0_d_15_391)">
<g filter="url(#filter1_ii_15_391)">
<rect x="10" y="24.6309" width="100" height="100" rx="23.0435" transform="rotate(-14.2591 10 24.6309)" fill="url(#paint0_linear_15_391)"/>
<rect x="10" y="24.6309" width="100" height="100" rx="23.0435" transform="rotate(-14.2591 10 24.6309)" fill="url(#paint1_linear_15_391)" fill-opacity="0.2" style="mix-blend-mode:soft-light"/>
</g>
<mask id="mask0_15_391" style="mask-type:alpha" maskUnits="userSpaceOnUse" x="40" y="30" width="62" height="66">
<path d="M84.0818 30.2789L44.5182 40.3335C41.997 40.9742 40.4725 43.5375 41.1133 46.0587L52.7147 91.709C53.3554 94.2302 55.9187 95.7546 58.4399 95.1139L98.0035 85.0594C100.525 84.4186 102.049 81.8554 101.408 79.3342L89.807 33.6838C89.1662 31.1626 86.603 29.6382 84.0818 30.2789Z" fill="white"/>
</mask>
<g mask="url(#mask0_15_391)">
<g filter="url(#filter2_ii_15_391)">
<path d="M84.0818 30.2789L44.5182 40.3335C41.997 40.9742 40.4725 43.5375 41.1133 46.0587L52.7147 91.709C53.3554 94.2302 55.9187 95.7546 58.4399 95.1139L98.0035 85.0594C100.525 84.4186 102.049 81.8554 101.408 79.3342L89.807 33.6838C89.1662 31.1626 86.603 29.6382 84.0818 30.2789Z" fill="url(#paint2_linear_15_391)"/>
<path d="M84.0818 30.2789L44.5182 40.3335C41.997 40.9742 40.4725 43.5375 41.1133 46.0587L52.7147 91.709C53.3554 94.2302 55.9187 95.7546 58.4399 95.1139L98.0035 85.0594C100.525 84.4186 102.049 81.8554 101.408 79.3342L89.807 33.6838C89.1662 31.1626 86.603 29.6382 84.0818 30.2789Z" fill="url(#paint3_radial_15_391)" fill-opacity="0.8"/>
<path d="M84.0818 30.2789L44.5182 40.3335C41.997 40.9742 40.4725 43.5375 41.1133 46.0587L52.7147 91.709C53.3554 94.2302 55.9187 95.7546 58.4399 95.1139L98.0035 85.0594C100.525 84.4186 102.049 81.8554 101.408 79.3342L89.807 33.6838C89.1662 31.1626 86.603 29.6382 84.0818 30.2789Z" fill="url(#paint4_radial_15_391)" fill-opacity="0.8"/>
<path d="M84.0818 30.2789L44.5182 40.3335C41.997 40.9742 40.4725 43.5375 41.1133 46.0587L52.7147 91.709C53.3554 94.2302 55.9187 95.7546 58.4399 95.1139L98.0035 85.0594C100.525 84.4186 102.049 81.8554 101.408 79.3342L89.807 33.6838C89.1662 31.1626 86.603 29.6382 84.0818 30.2789Z" fill="url(#paint5_radial_15_391)" fill-opacity="0.8"/>
</g>
</g>
<g filter="url(#filter3_ddii_15_391)">
<path fill-rule="evenodd" clip-rule="evenodd" d="M66.932 26.5357C68.8279 26.0539 70.7476 26.7964 71.8557 28.2665C71.9523 28.3947 72.1149 28.4585 72.2705 28.4189C74.7917 27.7782 77.3549 29.3026 77.9957 31.8238C78.6364 34.345 77.112 36.9083 74.5908 37.549L56.3306 42.1896C53.8094 42.8303 51.2462 41.3059 50.6054 38.7847C49.9647 36.2635 51.4891 33.7002 54.0103 33.0595C54.166 33.02 54.2783 32.8863 54.302 32.7275C54.5738 30.9068 55.906 29.3378 57.8019 28.856L66.932 26.5357Z" fill="#FF5C7A"/>
</g>
<g filter="url(#filter4_dii_15_391)">
<path fill-rule="evenodd" clip-rule="evenodd" d="M61.2383 63.8183C59.7478 62.9319 59.2581 61.0049 60.1445 59.5144C61.031 58.0238 62.9579 57.5341 64.4485 58.4206L69.4501 61.3952C69.6689 61.5253 69.9517 61.4534 70.0818 61.2346L74.6615 53.5341C75.5479 52.0436 77.4749 51.5539 78.9654 52.4403C80.456 53.3268 80.9457 55.2538 80.0592 56.7443L73.6389 67.5398C72.7927 68.9626 70.9985 69.4735 69.5408 68.746L69.3349 68.6336L61.2383 63.8183Z" fill="white"/>
</g>
</g>
<defs>
<filter id="filter0_d_15_391" x="0.123047" y="0.122559" width="181.305" height="181.305" filterUnits="userSpaceOnUse" color-interpolation-filters="sRGB">
<feFlood flood-opacity="0" result="BackgroundImageFix"/>
<feColorMatrix in="SourceAlpha" type="matrix" values="0 0 0 0 0 0 0 0 0 0 0 0 0 0 0 0 0 0 127 0" result="hardAlpha"/>
<feOffset dx="20" dy="30"/>
<feGaussianBlur stdDeviation="17.5"/>
<feColorMatrix type="matrix" values="0 0 0 0 0.0980392 0 0 0 0 0.631373 0 0 0 0 0.658824 0 0 0 0.35 0"/>
<feBlend mode="normal" in2="BackgroundImageFix" result="effect1_dropShadow_15_391"/>
<feBlend mode="normal" in="SourceGraphic" in2="effect1_dropShadow_15_391" result="shape"/>
</filter>
<filter id="filter1_ii_15_391" x="14.2958" y="4.29531" width="112.959" height="112.96" filterUnits="userSpaceOnUse" color-interpolation-filters="sRGB">
<feFlood flood-opacity="0" result="BackgroundImageFix"/>
<feBlend mode="normal" in="SourceGraphic" in2="BackgroundImageFix" result="shape"/>
<feColorMatrix in="SourceAlpha" type="matrix" values="0 0 0 0 0 0 0 0 0 0 0 0 0 0 0 0 0 0 127 0" result="hardAlpha"/>
<feOffset dx="0.827252" dy="0.827252"/>
<feGaussianBlur stdDeviation="0.413626"/>
<feComposite in2="hardAlpha" operator="arithmetic" k2="-1" k3="1"/>
<feColorMatrix type="matrix" values="0 0 0 0 1 0 0 0 0 1 0 0 0 0 1 0 0 0 0.2 0"/>
<feBlend mode="normal" in2="shape" result="effect1_innerShadow_15_391"/>
<feColorMatrix in="SourceAlpha" type="matrix" values="0 0 0 0 0 0 0 0 0 0 0 0 0 0 0 0 0 0 127 0" result="hardAlpha"/>
<feOffset dx="-0.827252" dy="-0.827252"/>
<feGaussianBlur stdDeviation="0.413626"/>
<feComposite in2="hardAlpha" operator="arithmetic" k2="-1" k3="1"/>
<feColorMatrix type="matrix" values="0 0 0 0 0 0 0 0 0 0 0 0 0 0 0 0 0 0 0.05 0"/>
<feBlend mode="normal" in2="effect1_innerShadow_15_391" result="effect2_innerShadow_15_391"/>
</filter>
<filter id="filter2_ii_15_391" x="35.6377" y="26.2984" width="65.917" height="68.9619" filterUnits="userSpaceOnUse" color-interpolation-filters="sRGB">
<feFlood flood-opacity="0" result="BackgroundImageFix"/>
<feBlend mode="normal" in="SourceGraphic" in2="BackgroundImageFix" result="shape"/>
<feColorMatrix in="SourceAlpha" type="matrix" values="0 0 0 0 0 0 0 0 0 0 0 0 0 0 0 0 0 0 127 0" result="hardAlpha"/>
<feOffset dx="-5.32907"/>
<feGaussianBlur stdDeviation="5.32907"/>
<feComposite in2="hardAlpha" operator="arithmetic" k2="-1" k3="1"/>
<feColorMatrix type="matrix" values="0 0 0 0 0.80575 0 0 0 0 0.7375 0 0 0 0 1 0 0 0 0.3 0"/>
<feBlend mode="normal" in2="shape" result="effect1_innerShadow_15_391"/>
<feColorMatrix in="SourceAlpha" type="matrix" values="0 0 0 0 0 0 0 0 0 0 0 0 0 0 0 0 0 0 127 0" result="hardAlpha"/>
<feOffset dy="-3.83443"/>
<feGaussianBlur stdDeviation="2.55629"/>
<feComposite in2="hardAlpha" operator="arithmetic" k2="-1" k3="1"/>
<feColorMatrix type="matrix" values="0 0 0 0 0.1755 0 0 0 0 0 0 0 0 0 0.675 0 0 0 0.65 0"/>
<feBlend mode="normal" in2="effect1_innerShadow_15_391" result="effect2_innerShadow_15_391"/>
</filter>
<filter id="filter3_ddii_15_391" x="45.6659" y="23.5138" width="37.2697" height="25.5324" filterUnits="userSpaceOnUse" color-interpolation-filters="sRGB">
<feFlood flood-opacity="0" result="BackgroundImageFix"/>
<feColorMatrix in="SourceAlpha" type="matrix" values="0 0 0 0 0 0 0 0 0 0 0 0 0 0 0 0 0 0 127 0" result="hardAlpha"/>
<feOffset dy="1.91722"/>
<feGaussianBlur stdDeviation="2.39652"/>
<feColorMatrix type="matrix" values="0 0 0 0 0.295167 0 0 0 0 0 0 0 0 0 0.670833 0 0 0 0.75 0"/>
<feBlend mode="normal" in2="BackgroundImageFix" result="effect1_dropShadow_15_391"/>
<feColorMatrix in="SourceAlpha" type="matrix" values="0 0 0 0 0 0 0 0 0 0 0 0 0 0 0 0 0 0 127 0" result="hardAlpha"/>
<feOffset dy="0.479304"/>
<feGaussianBlur stdDeviation="0.319536"/>
<feColorMatrix type="matrix" values="0 0 0 0 0.237156 0 0 0 0 0.00444442 0 0 0 0 0.533333 0 0 0 0.25 0"/>
<feBlend mode="normal" in2="effect1_dropShadow_15_391" result="effect2_dropShadow_15_391"/>
<feBlend mode="normal" in="SourceGraphic" in2="effect2_dropShadow_15_391" result="shape"/>
<feColorMatrix in="SourceAlpha" type="matrix" values="0 0 0 0 0 0 0 0 0 0 0 0 0 0 0 0 0 0 127 0" result="hardAlpha"/>
<feOffset dy="-1.91722"/>
<feGaussianBlur stdDeviation="1.91722"/>
<feComposite in2="hardAlpha" operator="arithmetic" k2="-1" k3="1"/>
<feColorMatrix type="matrix" values="0 0 0 0 0.525 0 0 0 0 0 0 0 0 0 0.0629999 0 0 0 0.65 0"/>
<feBlend mode="normal" in2="shape" result="effect3_innerShadow_15_391"/>
<feColorMatrix in="SourceAlpha" type="matrix" values="0 0 0 0 0 0 0 0 0 0 0 0 0 0 0 0 0 0 127 0" result="hardAlpha"/>
<feOffset dy="-0.958609"/>
<feGaussianBlur stdDeviation="0.958609"/>
<feComposite in2="hardAlpha" operator="arithmetic" k2="-1" k3="1"/>
<feColorMatrix type="matrix" values="0 0 0 0 0.553333 0 0 0 0 0.441667 0 0 0 0 1 0 0 0 0.65 0"/>
<feBlend mode="normal" in2="effect3_innerShadow_15_391" result="effect4_innerShadow_15_391"/>
</filter>
<filter id="filter4_dii_15_391" x="50.117" y="48.8032" width="39.9691" height="36.2488" filterUnits="userSpaceOnUse" color-interpolation-filters="sRGB">
<feFlood flood-opacity="0" result="BackgroundImageFix"/>
<feColorMatrix in="SourceAlpha" type="matrix" values="0 0 0 0 0 0 0 0 0 0 0 0 0 0 0 0 0 0 127 0" result="hardAlpha"/>
<feOffset dy="6.39072"/>
<feGaussianBlur stdDeviation="4.79304"/>
<feColorMatrix type="matrix" values="0 0 0 0 0.227561 0 0 0 0 0.00928819 0 0 0 0 0.445833 0 0 0 0.7 0"/>
<feBlend mode="normal" in2="BackgroundImageFix" result="effect1_dropShadow_15_391"/>
<feBlend mode="normal" in="SourceGraphic" in2="effect1_dropShadow_15_391" result="shape"/>
<feColorMatrix in="SourceAlpha" type="matrix" values="0 0 0 0 0 0 0 0 0 0 0 0 0 0 0 0 0 0 127 0" result="hardAlpha"/>
<feOffset dy="-2.55629"/>
<feGaussianBlur stdDeviation="1.59768"/>
<feComposite in2="hardAlpha" operator="arithmetic" k2="-1" k3="1"/>
<feColorMatrix type="matrix" values="0 0 0 0 0.32 0 0 0 0 0 0 0 0 0 1 0 0 0 0.5 0"/>
<feBlend mode="normal" in2="shape" result="effect2_innerShadow_15_391"/>
<feColorMatrix in="SourceAlpha" type="matrix" values="0 0 0 0 0 0 0 0 0 0 0 0 0 0 0 0 0 0 127 0" result="hardAlpha"/>
<feOffset dy="-1.29051"/>
<feGaussianBlur stdDeviation="0.860342"/>
<feComposite in2="hardAlpha" operator="arithmetic" k2="-1" k3="1"/>
<feColorMatrix type="matrix" values="0 0 0 0 0.975833 0 0 0 0 0.879167 0 0 0 0 1 0 0 0 0.75 0"/>
<feBlend mode="normal" in2="effect2_innerShadow_15_391" result="effect3_innerShadow_15_391"/>
</filter>
<linearGradient id="paint0_linear_15_391" x1="60" y1="24.6309" x2="60" y2="124.631" gradientUnits="userSpaceOnUse">
<stop stop-color="#E2BDFF"/>
<stop offset="1" stop-color="#DBB0FD"/>
</linearGradient>
<linearGradient id="paint1_linear_15_391" x1="60" y1="24.6309" x2="60" y2="124.631" gradientUnits="userSpaceOnUse">
<stop offset="0.328125" stop-color="white"/>
<stop offset="1" stop-opacity="0.1"/>
</linearGradient>
<linearGradient id="paint2_linear_15_391" x1="87.184" y1="23.3629" x2="50.022" y2="95.9365" gradientUnits="userSpaceOnUse">
<stop stop-color="#7041EE"/>
<stop offset="0.527788" stop-color="#8D41EE"/>
<stop offset="1" stop-color="#D641EE"/>
</linearGradient>
<radialGradient id="paint3_radial_15_391" cx="0" cy="0" r="1" gradientUnits="userSpaceOnUse" gradientTransform="translate(50.1317 26.229) rotate(81.2194) scale(69.1248 102.67)">
<stop stop-color="#52B6FF"/>
<stop offset="1" stop-color="#8F41EE" stop-opacity="0"/>
</radialGradient>
<radialGradient id="paint4_radial_15_391" cx="0" cy="0" r="1" gradientUnits="userSpaceOnUse" gradientTransform="translate(53.7589 41.3659) rotate(50.6308) scale(27.5918 73.7634)">
<stop stop-color="#9DD6FF"/>
<stop offset="1" stop-color="#8F41EE" stop-opacity="0"/>
</radialGradient>
<radialGradient id="paint5_radial_15_391" cx="0" cy="0" r="1" gradientUnits="userSpaceOnUse" gradientTransform="translate(122.399 65.1252) rotate(126.818) scale(44.3295 62.9103)">
<stop stop-color="#5263FF"/>
<stop offset="1" stop-color="#8F41EE" stop-opacity="0"/>
</radialGradient>
</defs>
</svg>
