<svg width="172" height="109" viewBox="0 0 172 109" fill="none" xmlns="http://www.w3.org/2000/svg">
<path d="M132.95 10.5535C135.635 11.7973 138.185 13.2577 140.6 14.9028C133.393 12.9876 125.883 12.012 119.011 11.2856L119.011 11.2856C103.638 9.67431 88.5872 10.1382 73.3564 12.5056L73.3548 12.5059C71.6261 12.7798 69.8936 13.0498 68.1609 13.3159C68.5529 12.9481 68.7551 12.4224 68.7714 11.9377C68.7857 11.5165 68.6675 11.067 68.3671 10.7226C68.2164 10.5497 68.0303 10.4157 67.8157 10.3274C88.9118 3.64429 112.553 1.10835 132.95 10.5535ZM42.8764 21.376C48.8185 18.14 55.1997 15.6431 61.7279 14.4544C61.5346 14.5861 61.379 14.7569 61.2665 14.9584C61.0435 15.3575 61.0189 15.8219 61.1196 16.2323C61.3187 17.044 62.08 17.8512 63.2156 17.6853L63.2164 17.6852C65.4897 17.3496 67.7534 16.9906 70.0122 16.6325C77.8451 15.3904 85.6197 14.1576 93.5315 13.9385C100.698 13.7568 107.886 13.9657 115.047 14.53L115.047 14.53C126.091 15.3949 138.244 16.9802 148.68 21.5434C152.635 25.4067 156.103 29.7959 159.082 34.496C162.129 39.3162 164.701 44.5431 166.067 50.0111C164.408 56.9971 160.277 63.8678 155.437 69.0176L155.819 69.3771L155.437 69.0176C141.013 84.3685 118.534 91.2818 98.4808 96.0469C83.3225 99.6411 66.8325 103.075 50.9221 103.032C45.1821 102.292 39.5029 101.176 33.9528 99.6277C25.8658 97.3654 17.8246 93.8715 11.8623 87.9762C6.65077 79.9023 7.78564 69.3582 10.6017 60.3234C15.9396 43.2496 28.0731 30.3739 42.8764 21.376ZM72.5965 5.28185C62.0295 8.03175 51.7002 11.9721 42.3336 17.4424C30.4785 23.5389 19.9329 32.7775 12.1087 42.6274L12.1084 42.6278C6.8137 49.3072 2.7349 57.4993 1.5511 65.7972C0.365353 74.1087 2.08606 82.5344 8.40267 89.6038C8.79569 90.0442 9.19915 90.473 9.61251 90.8908C10.2193 91.7761 10.887 92.641 11.6186 93.4827C17.6723 100.45 26.4058 104.004 35.6415 105.571C40.6804 106.426 45.8845 106.692 50.9123 106.593C51.6812 106.686 52.4427 106.773 53.1954 106.856C68.4575 108.549 83.8306 107.651 98.9603 105.385L98.9605 105.385C111.739 103.468 129.991 99.7918 144.878 92.3246C159.761 84.86 171.428 73.5224 170.687 56.2515C170.594 54.0583 170.309 51.8741 169.853 49.712C170.417 46.7208 170.541 43.7432 170.171 40.8528C169.391 34.7629 166.426 29.0938 160.852 24.5398C157.769 22.0177 154.302 19.9964 150.607 18.3604C146.349 14.4683 141.733 11.157 137.095 8.63482L136.844 9.09597L137.095 8.63478C117.169 -2.1968 93.6125 -0.176128 72.5968 5.28178L72.5965 5.28185ZM166.445 59.565C166.679 59.099 166.904 58.6314 167.119 58.1624L167.466 61.5398L166.945 61.4829C166.945 61.483 166.945 61.4831 166.945 61.4832C166.053 69.6602 161.305 76.1204 154.999 81.2376C148.691 86.3572 140.863 90.0977 133.908 92.8302L133.908 92.8303C117.661 99.2258 99.8845 102.307 82.5145 103.672C80.0023 103.866 77.4781 104.008 74.9474 104.092C90.8299 101.721 106.577 98.3766 121.749 92.9647L121.749 92.9645C139.151 86.7407 157.738 76.9311 166.445 59.565ZM159.367 27.91C163.452 31.2602 165.665 35.3036 166.478 39.6297C164.682 35.7096 162.392 31.944 159.754 28.4222C159.626 28.2509 159.497 28.0802 159.367 27.91ZM5.33264 65.939C5.05046 67.4539 4.84226 68.9736 4.71776 70.4896C4.72832 66.701 5.46526 62.8473 6.739 59.1891L6.73908 59.1889C7.47839 57.0623 8.3898 55.0013 9.4446 53.0063C7.60127 57.1556 6.1534 61.5326 5.33264 65.939Z" fill="#13AAA1" stroke="#19A1A8" stroke-width="1.04986"/>
</svg>
