<svg width="146" height="54" viewBox="0 0 146 54" fill="none" xmlns="http://www.w3.org/2000/svg">
<path d="M89.3597 48.7517C90.0246 48.3916 90.6951 48.3412 91.4209 48.4084C97.4768 48.9711 103.422 48.4223 109.28 46.7479C116.218 44.7648 122.899 42.2596 128.908 38.1264C132.062 35.9585 135.126 33.6925 137.952 31.1083C138.273 30.8145 138.563 30.2897 139.063 30.4805C139.704 30.7236 139.417 31.3715 139.433 31.8537C139.471 33.0856 139.391 34.3238 139.5 35.5494C139.583 36.4725 140.427 37.269 141.104 37.2568C142.031 37.2422 142.191 36.4776 142.423 35.8061C142.53 35.501 142.631 35.1901 142.709 34.8765C143.59 31.3523 144.452 27.8232 145.351 24.3016C145.686 22.9839 145.485 21.8346 144.424 20.9507C143.384 20.084 142.271 20.3059 141.149 20.8418C137.235 22.7047 133.31 24.5474 129.392 26.4091C128.867 26.6583 128.351 26.9423 127.883 27.281C127.394 27.6349 127.024 28.1233 127.242 28.7799C127.466 29.4534 128.061 29.5691 128.669 29.5152C129.246 29.4651 129.814 29.3086 130.391 29.2473C131.006 29.179 131.601 28.8217 132.285 29.0635C132.18 29.769 131.608 29.9993 131.177 30.3477C125.317 35.0846 118.761 38.5317 111.618 40.8525C107.18 42.2949 102.686 43.5091 97.9743 43.5994C97.5642 43.6061 97.0545 43.8455 96.7705 43.173C98.2826 41.4313 99.7033 39.5893 100.991 37.6415C108.377 26.4694 103.406 12.4984 93.0513 7.52664C90.8829 6.48568 88.689 5.48443 86.3486 4.98426C80.2418 3.68246 74.4192 4.60179 69.3101 8.23231C59.6202 15.1235 60.804 28.5016 65.3889 35.0065C68.8475 39.9172 73.6416 43.1674 79.1316 45.4398C80.0082 45.8031 80.9795 45.9528 81.8597 46.5633C81.5035 47.0699 81.1778 47.1445 80.8761 47.2408C76.3387 48.6833 71.693 49.4637 66.9303 49.3125C56.2263 48.97 46.093 46.227 36.5035 41.5469C30.1888 38.4661 24.5528 34.2775 19.2862 29.6396C12.4348 23.5977 6.94085 16.5319 3.62215 7.90987C2.82038 5.8296 2.18288 3.72382 2.90623 1.47197C3.04469 1.04114 3.29935 0.541276 2.74018 0.284299C2.13909 0.00852816 1.79134 0.486253 1.50436 0.935109C1.18172 1.43686 1.05696 2.00774 0.952087 2.58577C0.705579 3.95011 0.783337 5.30694 1.09762 6.64541C2.54662 12.8152 5.31622 18.3796 9.21538 23.3133C17.8998 34.2944 28.5711 42.7884 41.4976 48.1892C50.7172 52.044 60.3226 54.3216 70.4112 53.8089C77.0734 53.4724 83.45 51.9635 89.3597 48.7517ZM87.8263 42.7769C81.7869 41.5012 76.2415 39.2634 71.5479 35.0695C66.4882 30.549 64.8305 22.3766 67.9352 16.3938C69.6745 13.0425 72.455 10.9 75.9908 9.83389C79.855 8.66978 83.7495 8.58641 87.5834 10.133C90.6045 11.3524 93.4877 12.7699 95.7062 15.2666C96.6632 16.344 97.3968 17.5551 97.8618 18.6699C100.455 24.0527 100.334 29.1375 97.4404 34.1297C95.7008 37.13 93.5589 39.7793 90.8719 41.9797C89.966 42.7226 89.0216 43.0275 87.8263 42.7769Z" fill="#1F2148"/>
</svg>
