<svg version="1.2" xmlns="http://www.w3.org/2000/svg" viewBox="0 0 58 58" width="60" height="60">
	<title>User-icon-svg</title>
	<style>
		.s0 { fill: #13aaa1 } 
		.s1 { fill: none;stroke: #1f2148;stroke-linecap: round;stroke-linejoin: round;stroke-width: 4 } 
	</style>
	<path id="Layer" class="s0" d="m37 57c-11.6 0-21-9.4-21-21 0-11.6 9.4-21 21-21 11.6 0 21 9.4 21 21 0 11.6-9.4 21-21 21z"/>
	<path id="Layer" class="s1" d="m21.4 56c-10.5 0-19.4-1.6-19.4-7.9 0-6.4 8.9-12.1 19.4-12.1 10.5 0 19.5 5.7 19.5 12 0 6.4-8.9 8-19.5 8z"/>
	<path id="Layer" class="s1" d="m21.3 26.9c-6.8 0-12.3-5.6-12.3-12.4 0-6.9 5.6-12.5 12.4-12.5 6.9 0 12.5 5.6 12.5 12.5 0 6.8-5.6 12.4-12.5 12.4z"/>
</svg>