<svg width="161" height="31" viewBox="0 0 161 31" fill="none" xmlns="http://www.w3.org/2000/svg">
<path d="M14.1355 0.969727C15.4986 0.969727 16.7561 1.07532 17.9081 1.3889C19.06 1.59689 20.0039 2.01607 20.8423 2.54084C21.6807 3.06561 22.3078 3.79837 22.727 4.74232C23.1462 5.68627 23.3542 6.83821 23.3542 8.09574C23.3542 9.56126 23.0406 10.8188 22.3078 11.7627C21.6807 12.7067 20.6311 13.545 19.3736 14.1722C21.1559 14.697 22.5158 15.6377 23.3542 16.8953C24.1925 18.1528 24.7173 19.7239 24.7173 21.5062C24.7173 22.9717 24.4037 24.2293 23.8789 25.2788C23.3542 26.3252 22.5158 27.2691 21.5751 27.8995C20.6311 28.5266 19.4792 29.0514 18.2216 29.365C16.9641 29.6786 15.7066 29.8898 14.449 29.8898H0.408203V0.969727H14.1355ZM13.2971 12.7067C14.449 12.7067 15.393 12.3931 16.1258 11.8683C16.8585 11.3436 17.1721 10.4028 17.1721 9.24768C17.1721 8.62051 17.0665 7.99015 16.8585 7.57097C16.6505 7.15179 16.3337 6.83821 15.9146 6.52463C15.4954 6.31664 15.0762 6.10545 14.5514 5.99985C14.0267 5.89426 13.5051 5.89426 12.8747 5.89426H6.80146V12.7067H13.2971ZM13.6107 25.0708C14.2379 25.0708 14.8682 24.9652 15.393 24.8628C15.9178 24.7604 16.4393 24.5492 16.8585 24.2357C17.2777 23.9221 17.5913 23.6085 17.9049 23.0837C18.1192 22.5558 18.3272 21.9286 18.3272 21.1926C18.3272 19.7271 17.9081 18.6776 17.0697 17.9448C16.2313 17.3176 15.0794 17.0009 13.7163 17.0009H6.80146V25.0708H13.6107Z" fill="#263959" fill-opacity="0.2"/>
<path d="M33.8366 24.965C34.6749 25.8034 35.9324 26.2226 37.6092 26.2226C38.7611 26.2226 39.8106 25.909 40.649 25.3842C41.4873 24.757 42.0121 24.1267 42.2201 23.4995H47.3558C46.5175 26.0146 45.2599 27.7969 43.5832 28.9488C41.9065 29.9952 39.9162 30.6255 37.5068 30.6255C35.83 30.6255 34.3645 30.3119 33.0014 29.7872C31.6383 29.2624 30.5919 28.5296 29.648 27.4833C28.704 26.5393 27.9713 25.3874 27.5521 24.0243C27.0273 22.6612 26.8193 21.1956 26.8193 19.5189C26.8193 17.9478 27.0273 16.4791 27.5521 15.1192C28.0769 13.756 28.8096 12.6041 29.7536 11.5578C30.6975 10.6138 31.8495 9.77545 33.107 9.25388C34.4701 8.72911 35.83 8.41553 37.5068 8.41553C39.2891 8.41553 40.8602 8.72911 42.2233 9.46187C43.5864 10.1946 44.6328 11.033 45.4711 12.2905C46.3095 13.4425 46.9366 14.8056 47.3558 16.2711C47.5638 17.7366 47.6694 19.2053 47.5638 20.882H32.3678C32.3678 22.5556 32.9982 24.1267 33.8366 24.965ZM40.4378 13.964C39.705 13.2313 38.5531 12.8121 37.19 12.8121C36.246 12.8121 35.5133 13.0201 34.8861 13.3369C34.2589 13.6504 33.8398 14.0696 33.4206 14.4888C33.0014 14.908 32.7934 15.4327 32.6878 15.9543C32.5822 16.4791 32.4798 16.8983 32.4798 17.3174H41.9097C41.6953 15.7463 41.1706 14.6968 40.4378 13.964Z" fill="#263959" fill-opacity="0.2"/>
<path d="M55.7365 0.969727V11.8683H55.8421C56.5749 10.6108 57.5188 9.77245 58.6708 9.24768C59.8227 8.72291 60.8722 8.40932 62.0242 8.40932C63.5953 8.40932 64.8528 8.61731 65.7968 9.03649C66.7407 9.45567 67.5791 10.0828 68.1007 10.8188C68.6254 11.5516 69.0446 12.4955 69.2526 13.5418C69.4606 14.5882 69.5662 15.7433 69.5662 17.1033V29.9921H63.8033V18.156C63.8033 16.3737 63.4897 15.1162 62.9649 14.2778C62.4402 13.4394 61.4994 13.0203 60.1363 13.0203C58.5652 13.0203 57.4132 13.545 56.7829 14.3834C56.0501 15.3273 55.7365 16.8985 55.7365 18.9943V29.9986H49.9736V0.969727H55.7365Z" fill="#263959" fill-opacity="0.2"/>
<path d="M73.7606 12.0762C74.3877 11.1322 75.1237 10.5051 76.0644 9.8747C77.0084 9.34993 78.0547 8.93075 79.2067 8.72276C80.3586 8.51477 81.5106 8.40918 82.6657 8.40918C83.712 8.40918 84.7616 8.51477 85.9135 8.61717C86.9599 8.72276 88.0094 9.03635 88.8478 9.45552C89.7917 9.8747 90.4189 10.5019 91.0492 11.2378C91.574 11.9706 91.8876 13.0201 91.8876 14.2777V25.2819C91.8876 26.2258 91.9932 27.1666 92.0956 28.0049C92.2012 28.8433 92.5147 29.576 92.8283 29.9952H86.9631C86.7551 29.7872 86.6495 29.368 86.5439 29.0513C86.4383 28.7377 86.4383 28.3185 86.4383 28.0049C85.4943 28.9489 84.448 29.576 83.1905 29.9952C81.9329 30.4144 80.6754 30.52 79.4179 30.52C78.3715 30.52 77.5332 30.4144 76.5892 30.1008C75.7509 29.8928 75.0181 29.4736 74.2853 28.9489C73.6582 28.4241 73.1334 27.7969 72.7142 26.9586C72.4006 26.1202 72.1895 25.2819 72.1895 24.1299C72.1895 22.978 72.3974 21.9284 72.8166 21.1957C73.2358 20.4629 73.7606 19.8326 74.3877 19.311C75.0149 18.8918 75.8533 18.4726 76.6916 18.2646C77.53 18.0567 78.3683 17.8455 79.3123 17.7399C80.1506 17.6343 80.989 17.5319 81.8273 17.4263C82.6657 17.3207 83.3984 17.2183 84.0288 17.1127C84.656 16.9047 85.1807 16.6935 85.5999 16.3799C86.0191 16.0664 86.1247 15.6472 86.1247 15.0168C86.1247 14.3897 86.0191 13.8649 85.8111 13.5513C85.6031 13.2377 85.2863 12.9241 84.9728 12.7129C84.6592 12.505 84.24 12.3994 83.8208 12.2938C83.4016 12.1882 82.8769 12.1882 82.3553 12.1882C81.2034 12.1882 80.365 12.3962 79.7346 12.9209C79.1075 13.4457 78.6883 14.2841 78.5827 15.3304H72.8198C72.8166 14.0697 73.2358 12.9145 73.7606 12.0762ZM85.1839 20.2517C84.8704 20.3573 84.4512 20.4597 84.032 20.5653C83.6128 20.6709 83.1937 20.6709 82.6689 20.7733C82.2497 20.8789 81.7249 20.8789 81.3058 20.9813C80.8866 21.0869 80.4674 21.1893 80.0482 21.2949C79.629 21.4005 79.2099 21.6085 79.0019 21.8197C78.6883 22.0276 78.4771 22.3444 78.2691 22.658C77.9555 23.0772 77.9555 23.4964 77.9555 24.0211C77.9555 24.5459 78.0611 24.9651 78.2691 25.2787C78.4771 25.5923 78.6883 25.9058 79.0019 26.117C79.3155 26.325 79.7346 26.4306 80.1538 26.5362C80.573 26.6418 80.9922 26.6418 81.5169 26.6418C82.6689 26.6418 83.5072 26.4338 84.1376 26.117C84.7648 25.6978 85.1839 25.2787 85.5007 24.7539C85.8143 24.2291 86.0255 23.7076 86.0255 23.1828C86.1311 22.658 86.1311 22.2388 86.1311 21.9252V19.7238C85.8111 19.935 85.4975 20.1461 85.1839 20.2517Z" fill="#263959" fill-opacity="0.2"/>
<path d="M100.588 8.93395V11.8682H100.694C101.427 10.6107 102.371 9.77231 103.522 9.24753C104.674 8.72276 105.932 8.40918 107.084 8.40918C108.655 8.40918 109.913 8.61717 110.856 9.03635C111.903 9.45552 112.639 10.0827 113.16 10.8186C113.685 11.5514 114.104 12.4954 114.418 13.5417C114.626 14.588 114.731 15.7432 114.731 17.1031V29.992H108.969V18.1559C108.969 16.3735 108.655 15.116 108.13 14.2777C107.605 13.4393 106.665 12.9145 105.196 12.9145C103.625 12.9145 102.473 13.5417 101.737 14.4857C101.004 15.4296 100.691 17.0007 100.691 19.0966V30.1008H94.9277V8.93395H100.588Z" fill="#263959" fill-opacity="0.2"/>
<path d="M127.624 12.7065C126.68 12.7065 125.947 12.9145 125.32 13.3337C124.693 13.7529 124.168 14.2777 123.749 15.0104C123.33 15.6376 123.122 16.3735 122.911 17.2119C122.699 18.0503 122.703 18.783 122.703 19.6214C122.703 20.3541 122.808 21.1925 122.911 21.9252C123.119 22.7636 123.33 23.3908 123.749 24.0211C124.168 24.6483 124.587 25.1731 125.214 25.5923C125.842 26.0114 126.578 26.2194 127.518 26.2194C128.881 26.2194 129.928 25.8002 130.766 25.0675C131.499 24.3347 132.024 23.2852 132.129 21.9252H137.684C137.265 24.7539 136.219 26.8498 134.436 28.3185C132.654 29.784 130.35 30.52 127.522 30.52C125.95 30.52 124.482 30.2064 123.224 29.6816C121.861 29.1569 120.815 28.4241 119.871 27.4801C118.927 26.5362 118.194 25.3843 117.669 24.1267C117.145 22.7636 116.937 21.4037 116.937 19.8294C116.937 18.1527 117.145 16.6871 117.669 15.324C118.194 13.9609 118.821 12.7033 119.765 11.657C120.709 10.6107 121.861 9.8747 123.119 9.24753C124.482 8.72276 125.947 8.40918 127.624 8.40918C128.881 8.40918 130.033 8.61717 131.185 8.93395C132.337 9.24753 133.387 9.77231 134.225 10.3995C135.169 11.0266 135.902 11.865 136.427 12.9145C136.951 13.8585 137.265 15.116 137.371 16.4759H131.713C131.499 13.9641 130.139 12.7065 127.624 12.7065Z" fill="#263959" fill-opacity="0.2"/>
<path d="M42.9528 2.95996H31.2158V5.78861H42.9528V2.95996Z" fill="#263959" fill-opacity="0.2"/>
<path d="M146.381 24.965C147.219 25.8034 148.582 26.2226 150.153 26.2226C151.305 26.2226 152.355 25.909 153.193 25.3842C154.031 24.757 154.556 24.1267 154.764 23.4995H159.794C158.956 26.0146 157.698 27.7969 156.022 28.9488C154.345 29.9952 152.355 30.6255 149.945 30.6255C148.269 30.6255 146.803 30.3119 145.44 29.7872C144.077 29.2624 143.03 28.5296 142.086 27.4833C141.143 26.5393 140.41 25.3874 139.991 24.0243C139.466 22.6612 139.258 21.1956 139.258 19.5189C139.258 17.9478 139.466 16.4791 139.991 15.1192C140.515 13.7592 141.248 12.6041 142.192 11.5578C143.136 10.6138 144.288 9.77545 145.545 9.25388C146.909 8.72911 148.374 8.41553 149.945 8.41553C151.728 8.41553 153.299 8.72911 154.556 9.46187C155.919 10.1946 156.966 11.033 157.804 12.2905C158.642 13.4425 159.27 14.8056 159.689 16.2711C160.108 17.7366 160.213 19.3109 160.108 20.9876H144.912C144.912 22.5556 145.542 24.1267 146.381 24.965ZM153.087 13.964C152.355 13.2313 151.203 12.8121 149.84 12.8121C148.896 12.8121 148.163 13.0201 147.536 13.3369C146.909 13.6504 146.384 14.0696 146.07 14.4888C145.757 14.908 145.443 15.4327 145.337 15.9543C145.232 16.4791 145.129 16.8983 145.129 17.3174H154.559C154.239 15.7463 153.715 14.6968 153.087 13.964Z" fill="#263959" fill-opacity="0.2"/>
</svg>
