<svg width="110" height="31" viewBox="0 0 110 31" fill="none" xmlns="http://www.w3.org/2000/svg">
<path d="M21.3959 13.0822H12.1797C11.9422 13.0822 11.7481 13.2763 11.7481 13.5138V18.0169C11.7481 18.2544 11.9399 18.4485 12.1797 18.4485H15.7739V24.0454C15.7739 24.0454 14.9656 24.3217 12.7346 24.3217C10.1017 24.3217 6.42294 23.3603 6.42294 15.2721C6.42294 7.18164 10.2524 6.11752 13.8489 6.11752C16.9614 6.11752 18.3018 6.66556 19.1558 6.93045C19.423 7.01266 19.6719 6.74549 19.6719 6.508L20.6995 2.15562C20.6995 2.04373 20.6607 1.91129 20.5351 1.81995C20.1902 1.57104 18.0757 0.388184 12.7369 0.388184C6.58279 0.388184 0.273438 3.00509 0.273438 15.5873C0.273438 28.1694 7.49848 30.0442 13.5863 30.0442C18.6283 30.0442 21.6859 27.8908 21.6859 27.8908C21.8115 27.8223 21.8252 27.6442 21.8252 27.5643V13.5115C21.8252 13.2741 21.6334 13.0822 21.3959 13.0822Z" fill="#263959" fill-opacity="0.2"/>
<path d="M68.8861 1.89529C68.8861 1.65552 68.6966 1.46143 68.4591 1.46143H63.271C63.0335 1.46143 62.8417 1.65552 62.8417 1.89529L62.8439 11.9222H54.7557V1.89529C54.7557 1.65552 54.5639 1.46143 54.3264 1.46143H49.1383C48.9031 1.46143 48.709 1.65552 48.709 1.89529V29.0463C48.709 29.286 48.9008 29.4801 49.1383 29.4801H54.3264C54.5639 29.4801 54.7557 29.286 54.7557 29.0463V17.4346H62.8417L62.828 29.0486C62.828 29.2883 63.0198 29.4824 63.2573 29.4824H68.4591C68.6966 29.4824 68.8861 29.2883 68.8884 29.0486V1.89529H68.8861Z" fill="#263959" fill-opacity="0.2"/>
<path d="M31.1878 5.4574C31.1878 3.58948 29.6898 2.08008 27.8424 2.08008C25.9973 2.08008 24.4971 3.58948 24.4971 5.4574C24.4971 7.32303 25.9951 8.837 27.8424 8.837C29.6898 8.83928 31.1878 7.32531 31.1878 5.4574Z" fill="#263959" fill-opacity="0.2"/>
<path d="M30.815 23.3188C30.815 22.6223 30.815 10.7846 30.815 10.7846C30.815 10.5471 30.6232 10.353 30.3857 10.353H25.2135C24.976 10.353 24.7637 10.5974 24.7637 10.8348C24.7637 10.8348 24.7637 25.9175 24.7637 28.7924C24.7637 29.3199 25.0925 29.4775 25.5172 29.4775C25.5172 29.4775 27.7254 29.4775 30.1779 29.4775C30.6894 29.4775 30.815 29.2263 30.815 28.7833C30.815 27.8219 30.815 24.0518 30.815 23.3188Z" fill="#263959" fill-opacity="0.2"/>
<path d="M88.6069 10.3945H83.4576C83.2224 10.3945 83.0283 10.5886 83.0283 10.8284V24.1413C83.0283 24.1413 81.7199 25.0981 79.8634 25.0981C78.0069 25.0981 77.5136 24.2555 77.5136 22.4378C77.5136 20.6178 77.5136 10.8284 77.5136 10.8284C77.5136 10.5886 77.3218 10.3945 77.0843 10.3945H71.8619C71.6267 10.3945 71.4326 10.5886 71.4326 10.8284C71.4326 10.8284 71.4326 17.9187 71.4326 23.3169C71.4326 28.7174 74.4423 30.0373 78.5823 30.0373C81.9779 30.0373 84.7181 28.1603 84.7181 28.1603C84.7181 28.1603 84.8483 29.149 84.9076 29.2655C84.967 29.382 85.12 29.5007 85.2867 29.5007L88.6115 29.487C88.8467 29.487 89.0408 29.2929 89.0408 29.0531L89.0385 10.8261C89.0362 10.5886 88.8444 10.3945 88.6069 10.3945Z" fill="#263959" fill-opacity="0.2"/>
<path d="M102.68 9.78483C99.7548 9.78483 97.7659 11.0887 97.7659 11.0887V1.89529C97.7659 1.65552 97.574 1.46143 97.3366 1.46143H92.1324C91.8949 1.46143 91.7031 1.65552 91.7031 1.89529V29.0463C91.7031 29.286 91.8949 29.4801 92.1324 29.4801C92.1324 29.4801 95.7404 29.4801 95.7427 29.4801C95.9048 29.4801 96.0281 29.3957 96.1194 29.2495C96.2085 29.1034 96.3387 27.9981 96.3387 27.9981C96.3387 27.9981 98.4669 30.0145 102.495 30.0145C107.224 30.0145 109.935 27.6168 109.935 19.2477C109.937 10.8786 105.607 9.78483 102.68 9.78483ZM100.65 25.0821C98.8642 25.0273 97.6517 24.2166 97.6517 24.2166V15.6192C97.6517 15.6192 98.846 14.8862 100.312 14.756C102.166 14.5893 103.952 15.1511 103.952 19.5743C103.954 24.2372 103.148 25.1575 100.65 25.0821Z" fill="#263959" fill-opacity="0.2"/>
<path d="M45.7295 10.3513H41.8384C41.8384 10.3513 41.8316 5.21108 41.8316 5.20879C41.8316 5.0147 41.7311 4.9165 41.5073 4.9165H36.2027C35.9972 4.9165 35.8853 5.00784 35.8853 5.20651V10.5202C35.8853 10.5202 33.2273 11.1619 33.0469 11.2144C32.8688 11.267 32.7363 11.4314 32.7363 11.6278V14.9663C32.7363 15.206 32.9281 15.4001 33.1656 15.4001H35.8853C35.8853 15.4001 35.8853 18.8916 35.8853 23.4335C35.8853 29.4003 40.071 29.9872 42.8957 29.9872C44.1859 29.9872 45.7295 29.5739 45.9853 29.478C46.1383 29.4209 46.2296 29.2611 46.2296 29.0875L46.2342 25.4133C46.2342 25.1736 46.0309 24.9795 45.8049 24.9795C45.5788 24.9795 44.9988 25.0708 44.4005 25.0708C42.4892 25.0708 41.8407 24.1825 41.8407 23.0316C41.8407 21.8807 41.8407 15.3978 41.8407 15.3978H45.7341C45.9716 15.3978 46.1634 15.2037 46.1634 14.964V10.7851C46.1588 10.5454 45.967 10.3513 45.7295 10.3513Z" fill="#263959" fill-opacity="0.2"/>
</svg>
