<svg width="163" height="46" viewBox="0 0 163 46" fill="none" xmlns="http://www.w3.org/2000/svg">
<path d="M8.49241 0.159688C5.17245 1.55121 1.52526 5.47479 0.372016 10.4023C-1.08622 16.6419 4.98501 19.282 5.48379 18.4179C6.07154 17.4012 4.39409 17.0581 4.05097 13.8176C3.60619 9.63347 5.55051 4.96012 7.99679 2.91096C8.4511 2.52972 8.42887 3.06028 8.42887 4.04197C8.42887 5.79567 8.33356 21.5408 8.33356 24.829C8.33356 29.2768 8.14929 30.681 7.81888 32.0662C7.4853 33.4736 6.94839 34.4235 7.35504 34.7889C7.80935 35.1987 9.75367 34.2234 10.8783 32.6539C12.2254 30.7732 12.6987 28.5112 12.7845 26.0553C12.8862 23.0976 12.883 18.402 12.8862 15.7238C12.8894 13.268 12.9275 6.07524 12.8417 1.75136C12.8226 0.693423 9.88075 -0.421701 8.49241 0.159688Z" fill="#263959" fill-opacity="0.2"/>
<path d="M126.339 20.9722C126.231 23.285 125.72 25.0895 125.084 26.3667C123.855 28.8352 121.304 29.6009 120.22 26.0522C119.63 24.1174 119.604 20.8896 120.027 18.1923C120.459 15.4442 121.666 13.3665 123.661 13.5539C125.634 13.7382 126.555 16.2766 126.339 20.9722ZM93.1239 35.3131C93.0985 39.1541 92.4917 42.5217 91.1954 43.5002C89.356 44.8885 86.8843 43.8465 87.3958 41.0444C87.8501 38.5632 89.9914 36.0311 93.1271 32.9367C93.1302 32.9367 93.1366 33.642 93.1239 35.3131ZM92.6219 20.9499C92.5107 23.0563 91.9643 25.1721 91.367 26.3667C90.1375 28.8352 87.5673 29.604 86.503 26.0522C85.7755 23.625 85.9502 20.4829 86.3092 18.5036C86.7763 15.9366 87.9104 13.5539 89.9437 13.5539C91.9262 13.5539 92.9015 15.7238 92.6219 20.9499ZM73.3821 20.9182C73.2613 23.1484 72.8261 25.0133 72.1272 26.3667C70.8627 28.8162 68.3656 29.5945 67.2632 26.0522C66.4689 23.4979 66.739 20.0159 67.0694 18.1351C67.5586 15.3457 68.7881 13.3665 70.7039 13.5539C72.6736 13.7445 73.633 16.2766 73.3821 20.9182ZM161.559 23.5201C161.077 23.5201 160.857 24.0157 160.676 24.8513C160.047 27.755 159.383 28.4127 158.529 28.4127C157.572 28.4127 156.715 26.9735 156.495 24.0951C156.321 21.83 156.349 17.6649 156.572 13.5189C156.616 12.6675 156.381 11.8256 154.097 10.9932C153.115 10.6374 151.685 10.11 150.974 11.8288C148.963 16.6801 148.178 20.5337 147.99 22.0968C147.981 22.1794 147.882 22.1953 147.863 22.0047C147.746 20.753 147.482 18.4751 147.45 13.6873C147.444 12.7533 147.247 11.959 146.215 11.3078C145.547 10.8852 143.514 10.1386 142.783 11.0282C142.151 11.7557 141.417 13.7096 140.655 16.0288C140.035 17.9127 139.603 19.1867 139.603 19.1867C139.603 19.1867 139.613 14.1035 139.619 12.1751C139.622 11.4475 139.124 11.2061 138.974 11.1616C138.298 10.9646 136.963 10.6374 136.398 10.6374C135.699 10.6374 135.527 11.0282 135.527 11.5969C135.527 11.6731 135.416 18.2876 135.416 22.9165C135.416 23.1166 135.416 23.3358 135.416 23.5709C135.028 25.6964 133.777 28.5842 132.414 28.5842C131.048 28.5842 130.406 27.377 130.406 21.8617C130.406 18.6434 130.501 17.2456 130.549 14.9168C130.577 13.5761 130.628 12.5468 130.625 12.3117C130.616 11.5937 129.377 11.2347 128.798 11.1013C128.22 10.9678 127.715 10.9138 127.324 10.9361C126.768 10.9678 126.374 11.3332 126.374 11.8351C126.374 12.1052 126.377 12.6167 126.377 12.6167C125.659 11.492 124.509 10.7073 123.741 10.4817C121.675 9.86859 119.521 10.4119 117.895 12.6866C116.602 14.4943 115.823 16.5403 115.518 19.4822C115.293 21.633 115.366 23.8124 115.766 25.655C115.287 27.736 114.391 28.5874 113.412 28.5874C111.992 28.5874 110.963 26.2682 111.083 22.262C111.163 19.6251 111.69 17.7761 112.265 15.0979C112.51 13.9574 112.313 13.3601 111.811 12.7882C111.35 12.264 110.372 11.994 108.964 12.3244C107.96 12.5595 106.528 12.8137 105.216 13.0075C105.216 13.0075 105.295 12.6929 105.358 12.1338C105.698 9.21413 102.528 9.4524 101.514 10.3833C100.911 10.9392 100.498 11.5969 100.342 12.7787C100.094 14.6531 101.622 15.5363 101.622 15.5363C101.12 17.8301 99.8909 20.8292 98.6233 22.9959C97.9434 24.1587 97.4223 25.0165 96.752 25.9314C96.7488 25.5915 96.7488 25.2484 96.7457 24.9116C96.7298 20.0858 96.7933 16.2893 96.8219 14.92C96.8505 13.5793 96.9045 12.5786 96.9013 12.3435C96.895 11.8193 96.5868 11.6223 95.9514 11.3713C95.3891 11.1489 94.7219 10.9964 94.0325 10.9424C93.162 10.8757 92.6378 11.3364 92.6505 11.8828C92.6537 11.9845 92.6537 12.6199 92.6537 12.6199C91.9357 11.4952 90.7856 10.7105 90.0168 10.4849C87.9518 9.87176 85.7978 10.415 84.1711 12.6898C82.8781 14.4975 82.033 17.0327 81.7947 19.4631C81.5723 21.7283 81.6137 23.6504 81.9155 25.2706C81.5882 26.8941 80.6447 28.5906 79.5772 28.5906C78.2111 28.5906 77.4359 27.3833 77.4359 21.8681C77.4359 18.6498 77.5312 17.2519 77.5789 14.9232C77.6075 13.5825 77.6583 12.5531 77.6551 12.318C77.6456 11.6 76.4066 11.241 75.8284 11.1076C75.2247 10.9678 74.7037 10.917 74.3034 10.9456C73.776 10.9837 73.4043 11.4571 73.4043 11.8097V12.623C72.6863 11.4984 71.5362 10.7137 70.7674 10.4881C68.7024 9.87494 66.5611 10.4277 64.9217 12.6929C63.8543 14.1702 62.9901 15.8064 62.5454 19.4313C62.4183 20.4797 62.3611 21.4614 62.3675 22.3764C61.9417 24.9815 60.061 27.9806 58.5233 27.9806C57.6242 27.9806 56.7664 26.2333 56.7664 22.513C56.7664 17.5569 57.0746 10.5008 57.1254 9.82093C57.1254 9.82093 59.0697 9.78916 59.4446 9.78281C60.4136 9.77328 61.2904 9.79552 62.5835 9.7288C63.2316 9.69703 63.8543 7.37147 63.1871 7.08237C62.8853 6.95211 60.744 6.83774 59.8958 6.81868C59.1809 6.80279 57.1953 6.65665 57.1953 6.65665C57.1953 6.65665 57.3732 1.97377 57.4145 1.47815C57.4495 1.06515 56.9157 0.852288 56.6107 0.725208C55.8673 0.410686 55.2002 0.261367 54.4123 0.0961639C53.3226 -0.129402 52.8269 0.0898099 52.7316 1.01114C52.5855 2.40584 52.5124 6.4978 52.5124 6.4978C51.7118 6.4978 48.9796 6.34213 48.179 6.34213C47.4356 6.34213 46.6318 9.53818 47.6612 9.57948C48.843 9.62396 50.9049 9.66526 52.271 9.70656C52.271 9.70656 52.2106 16.8802 52.2106 19.0946C52.2106 19.3297 52.2106 19.5584 52.2138 19.7776C51.4608 23.698 48.8144 25.8139 48.8144 25.8139C49.3831 23.2215 48.2203 21.274 46.1299 19.6251C45.3578 19.0183 43.8361 17.8682 42.1332 16.607C42.1332 16.607 43.1181 15.6348 43.9949 13.6778C44.6144 12.2926 44.643 10.7073 43.1212 10.3578C40.6082 9.77963 38.5337 11.6255 37.9173 13.5952C37.4376 15.1233 37.6949 16.2543 38.6322 17.433C38.702 17.5188 38.7751 17.6077 38.8514 17.6967C38.2827 18.7896 37.5043 20.2637 36.8435 21.4042C35.0104 24.5749 33.6284 27.0815 32.58 27.0815C31.7444 27.0815 31.754 24.5367 31.754 22.1508C31.754 20.0953 31.9065 17.0073 32.0272 13.8081C32.0685 12.7501 31.5379 12.1465 30.6516 11.6032C30.1115 11.2728 28.9614 10.6184 28.2974 10.6184C27.2998 10.6184 24.4247 10.755 21.7083 18.6148C21.3652 19.6061 20.6917 21.4106 20.6917 21.4106L20.7489 11.959C20.7489 11.7367 20.6313 11.5238 20.3613 11.3777C19.9038 11.1299 18.6807 10.6215 17.5941 10.6215C17.0763 10.6215 16.8189 10.863 16.8189 11.3427L16.7236 26.1316C16.7236 27.2563 16.7522 28.5652 16.8634 29.1402C16.9746 29.7152 17.1525 30.1823 17.3749 30.4587C17.5973 30.7351 17.8546 30.9479 18.2772 31.0337C18.6711 31.1163 20.8251 31.3927 20.9395 30.5667C21.0729 29.5786 21.0793 28.5112 22.2103 24.5304C23.9735 18.3321 26.2705 15.3076 27.3507 14.2306C27.5381 14.0432 27.7541 14.0304 27.7446 14.3386C27.697 15.6984 27.5349 19.0946 27.4269 21.9793C27.1346 29.6994 28.5389 31.1322 30.5467 31.1322C32.0812 31.1322 34.2479 29.6072 36.5671 25.744C38.0126 23.3358 39.42 20.9753 40.4272 19.2757C41.1293 19.9269 41.9203 20.6259 42.7082 21.3756C44.5414 23.1166 45.1418 24.7687 44.7447 26.3381C44.4397 27.5358 43.2896 28.7717 41.2436 27.5708C40.6464 27.2213 40.3922 26.9481 39.7918 26.5541C39.4709 26.3413 38.9784 26.2777 38.683 26.5001C37.9173 27.0783 37.4789 27.8122 37.2279 28.724C36.9833 29.6104 37.8697 30.0774 38.791 30.4873C39.5821 30.8399 41.2849 31.1576 42.3683 31.1957C46.5969 31.3355 49.9804 29.1561 52.3377 23.5265C52.7602 28.3873 54.5552 31.1385 57.675 31.1385C59.7623 31.1385 61.8528 28.4413 62.7677 25.7885C63.0314 26.8687 63.419 27.809 63.921 28.6065C66.326 32.4157 70.9898 31.596 73.3312 28.3618C74.0556 27.3611 74.1668 27.0021 74.1668 27.0021C74.5099 30.0552 76.9689 31.1226 78.3763 31.1226C79.9521 31.1226 81.5819 30.3761 82.7224 27.8059C82.8559 28.0854 83.002 28.3523 83.1608 28.6033C85.5658 32.4125 90.2297 31.5928 92.5711 28.3587C92.6823 28.2062 92.7776 28.0696 92.8602 27.9457L92.9301 29.9503C92.9301 29.9503 91.5926 31.1767 90.7729 31.9296C87.1575 35.2432 84.4126 37.7562 84.2093 40.6822C83.9519 44.4152 86.9764 45.8003 89.2702 45.9814C91.7006 46.1752 93.7847 44.8314 95.0619 42.9506C96.1865 41.2954 96.9236 37.734 96.8696 34.217C96.8473 32.8096 96.8124 31.0178 96.7838 29.0989C98.0514 27.6248 99.4842 25.7631 100.799 23.5805C102.235 21.2041 103.773 18.0144 104.558 15.53C104.558 15.53 105.895 15.5427 107.319 15.4474C107.776 15.4188 107.906 15.5109 107.821 15.8445C107.719 16.248 106.019 22.8021 107.57 27.1705C108.631 30.16 111.023 31.1226 112.443 31.1226C114.105 31.1226 115.693 29.8677 116.545 28.006C116.646 28.2125 116.754 28.4159 116.872 28.6001C119.277 32.4093 123.925 31.5833 126.282 28.3555C126.816 27.628 127.118 26.9957 127.118 26.9957C127.623 30.1568 130.082 31.1322 131.489 31.1322C132.957 31.1322 134.349 30.5317 135.476 27.8599C135.524 29.0354 135.597 29.998 135.715 30.303C135.788 30.4872 136.204 30.7223 136.506 30.8335C137.846 31.3323 139.216 31.0972 139.721 30.9924C140.07 30.9225 140.343 30.6397 140.382 29.9122C140.48 28.006 140.42 24.8004 140.998 22.4177C141.97 18.421 142.876 16.8707 143.304 16.1018C143.546 15.6729 143.816 15.5999 143.825 16.0574C143.845 16.9787 143.892 19.6823 144.267 23.3168C144.543 25.9886 144.912 27.5708 145.195 28.0696C146.005 29.4992 147.002 29.5659 147.816 29.5659C148.334 29.5659 149.417 29.423 149.318 28.5143C149.271 28.0696 149.353 25.331 150.31 21.3915C150.936 18.8182 151.978 16.4958 152.353 15.6475C152.492 15.333 152.556 15.5808 152.553 15.6285C152.473 17.4012 152.295 23.1929 153.016 26.3635C153.995 30.6556 156.826 31.1354 157.811 31.1354C159.917 31.1354 161.636 29.5342 162.217 25.3215C162.385 24.3048 162.179 23.5201 161.559 23.5201Z" fill="#263959" fill-opacity="0.2"/>
</svg>
