<svg width="1440" height="682" viewBox="0 0 1440 682" fill="none" xmlns="http://www.w3.org/2000/svg">
<mask id="mask0_13_7916" style="mask-type:alpha" maskUnits="userSpaceOnUse" x="0" y="0" width="1442" height="682">
<rect width="1442" height="682" fill="#263959"/>
</mask>
<g mask="url(#mask0_13_7916)">
<path d="M50.1254 26.4906C70.4618 62.3691 72.4471 107.58 70.8701 154.816C69.3363 200.293 66.4016 247.201 80.126 286.016C108.417 366.047 189.466 398.004 269.361 408.64C358.659 420.511 457.939 411.692 537.009 447.232C575.79 464.667 608.191 495.102 617.17 542.465C624.603 581.71 611.643 625.023 587.965 666.806C574.507 690.545 558.798 713.084 542.841 735.498L550.023 740.961C554.546 734.612 559.07 728.263 563.475 721.888C589.168 684.868 614.22 645.154 624.784 603.697C636.768 556.603 626.965 513.444 604.531 483.424C577.17 446.778 533.474 428.643 488.081 418.655C444.342 409.029 397.607 406.818 351.291 404.03C262.876 398.718 167.7 389.159 114.031 322.233C101.475 306.573 91.8547 288.027 86.4135 266.804C81.0232 245.845 79.8367 222.804 80.047 199.354C80.4491 153.464 86.0012 105.22 76.6515 63.206C66.9929 19.741 41.9551 -15.2026 6.792 -34.5254C6.74847 -34.5585 6.6894 -34.5714 6.63136 -34.6156L-1.24807 -24.3888C20.1151 -12.8109 37.6583 4.53136 50.1254 26.4906Z" fill="#916DF9"/>
<path d="M38.3971 157.194C80.0369 246.034 182.705 270.121 261.507 274.679C302.065 277.024 344.492 275.51 385.534 274.031C438.668 272.119 493.605 270.139 544.842 276.574C594.85 282.842 713.295 309.748 732.973 423.569C744.283 489.053 720.382 575.807 661.929 681.421C656.439 691.354 650.711 701.297 644.954 711.219L646.434 712.344C652.285 702.271 658.093 692.164 663.677 682.079C722.477 575.865 746.502 488.533 735.075 422.513C715.223 307.695 596.039 280.612 545.72 274.299C494.349 267.858 439.34 269.815 386.131 271.733C345.119 273.203 302.736 274.719 262.267 272.379C183.836 267.846 81.6833 243.927 40.3513 155.673C25.6238 124.253 19.4623 86.1347 13.4822 49.2746C10.9858 33.9073 8.45008 18.3822 5.29261 3.21588L3.47428 5.5759C6.51149 20.3308 8.95807 35.4042 11.3798 50.3308C17.3557 87.3157 23.5587 125.529 38.3971 157.194Z" fill="#3EE8B5"/>
</g>
</svg>
