<svg width="229" height="31" viewBox="0 0 229 31" fill="none" xmlns="http://www.w3.org/2000/svg">
<path d="M9.27635 30.4806C5.84634 30.4806 3.1627 29.6958 0.93457 27.55L2.91574 25.5688C4.52922 27.2646 6.71345 27.9232 9.23793 27.9232C12.5856 27.9232 14.6491 26.7268 14.6491 24.3285C14.6491 22.5504 13.6174 21.5626 11.263 21.354L7.91532 21.0632C3.94749 20.7339 1.84558 18.9558 1.84558 15.6136C1.84558 11.8982 4.98472 9.66455 9.32025 9.66455C12.2124 9.66455 14.8138 10.367 16.6303 11.8543L14.6875 13.797C13.2442 12.683 11.3837 12.189 9.27635 12.189C6.30185 12.189 4.73227 13.4677 4.73227 15.5367C4.73227 17.2709 5.72561 18.3027 8.28302 18.5112L11.5484 18.8021C15.0991 19.1314 17.5358 20.4979 17.5358 24.2956C17.5358 28.2085 14.1881 30.4806 9.27635 30.4806Z" fill="#263959" fill-opacity="0.2"/>
<path d="M26.58 30.2279C23.1116 30.2279 21.3774 27.7912 21.3774 24.7783V12.304H18.8145V10.032H21.3774V3.67139H24.3519V10.032H28.6874V12.304H24.3519V24.696C24.3519 26.5564 25.219 27.6705 27.1178 27.6705H28.6874V30.2334H26.58" fill="#263959" fill-opacity="0.2"/>
<path d="M44.0645 20.8545H38.3679C35.3111 20.8545 33.8238 22.0948 33.8238 24.4491C33.8238 26.8035 35.2672 27.9175 38.4941 27.9175C40.2283 27.9175 41.7595 27.7913 43.0382 26.5565C43.7407 25.898 44.0699 24.74 44.0699 23.0442V20.8545H44.0645ZM44.0645 30.228V28.2852C42.4126 29.9371 40.9253 30.475 38.1978 30.475C35.3879 30.475 33.736 29.9371 32.4573 28.6145C31.464 27.6212 30.9316 26.0955 30.9316 24.482C30.9316 20.9313 33.4122 18.6154 37.9508 18.6154H44.0645V16.6726C44.0645 13.6981 42.5772 12.2109 38.8618 12.2109C36.2605 12.2109 34.9379 12.831 33.7415 14.5213L31.7164 12.6609C33.533 10.3065 35.6019 9.64795 38.9057 9.64795C44.3553 9.64795 47.0444 12.0023 47.0444 16.4202V30.228H44.0645Z" fill="#263959" fill-opacity="0.2"/>
<path d="M58.6904 30.4802C53.5701 30.4802 49.6846 27.0118 49.6846 20.0695C49.6846 13.1326 53.5701 9.65869 58.6904 9.65869C61.5003 9.65869 63.2729 10.3996 65.3803 12.6716L63.3552 14.5705C61.8295 12.8747 60.6277 12.2984 58.6904 12.2984C56.7092 12.2984 55.0573 13.0832 53.9817 14.6089C53.0323 15.9315 52.6591 17.5011 52.6591 20.0585C52.6591 22.6159 53.0323 24.1909 53.9817 25.5081C55.0573 27.0337 56.7092 27.8185 58.6904 27.8185C60.6332 27.8185 61.8295 27.1984 63.3552 25.5081L65.3803 27.4508C63.2729 29.7338 61.5003 30.4802 58.6904 30.4802Z" fill="#263959" fill-opacity="0.2"/>
<path d="M81.6636 30.228L75.2207 19.8227L71.2528 24.3668V30.228H68.2783V0.823242H71.2528V20.4868L80.4233 9.91139H84.1387L77.2402 17.6769L85.3351 30.2335H81.6636" fill="#263959" fill-opacity="0.2"/>
<path d="M97.331 15.0919C96.7438 14.5047 95.959 14.1919 94.9437 14.1919C93.9284 14.1919 93.182 14.5047 92.5948 15.0919C91.5356 16.1511 91.4204 17.9127 91.4204 20.0256C91.4204 22.1385 91.5356 23.9386 92.5948 24.9978C93.182 25.585 93.9229 25.8978 94.9437 25.8978C95.959 25.8978 96.7438 25.585 97.331 24.9978C98.3847 23.9441 98.5054 22.1385 98.5054 20.0256C98.5054 17.9127 98.3902 16.1511 97.331 15.0919ZM101.288 27.9723C100.037 29.3059 97.9621 30.4803 94.9437 30.4803C91.9308 30.4803 89.8947 29.3059 88.6435 27.9723C86.805 26.0515 86.333 23.7465 86.333 20.0256C86.333 16.3432 86.805 14.0382 88.6435 12.1174C89.8947 10.7893 91.9308 9.60938 94.9437 9.60938C97.9566 9.60938 100.031 10.7838 101.288 12.1174C103.126 14.0382 103.598 16.3432 103.598 20.0256C103.598 23.7465 103.126 26.0569 101.288 27.9723Z" fill="#263959" fill-opacity="0.2"/>
<path d="M115.035 30.2446H111.04L103.521 9.85119H108.883L113.032 22.4572L117.148 9.8457H122.51L115.035 30.2446Z" fill="#263959" fill-opacity="0.2"/>
<path d="M134.573 15.9535C134.024 14.7407 132.888 13.8406 131.165 13.8406C129.442 13.8406 128.306 14.7407 127.762 15.9535C127.449 16.6999 127.329 17.2432 127.29 18.1432H135.039C135.006 17.2487 134.886 16.6999 134.573 15.9535ZM127.29 21.6281C127.29 24.2514 128.893 26.1667 131.752 26.1667C133.986 26.1667 135.078 25.5411 136.373 24.2459L139.468 27.2588C137.394 29.3333 135.396 30.4693 131.719 30.4693C126.906 30.4693 122.285 28.2796 122.285 20.0201C122.285 13.3632 125.885 9.60938 131.17 9.60938C136.845 9.60938 140.055 13.7583 140.055 19.3561V21.6281H127.29Z" fill="#263959" fill-opacity="0.2"/>
<path d="M153.666 15.4051C152.881 14.6203 152.217 14.1922 150.966 14.1922C149.401 14.1922 147.678 15.3667 147.678 17.9515V30.2447H142.591V9.84573H147.563V11.805C148.54 10.6305 150.499 9.61523 152.689 9.61523C154.686 9.61523 156.097 10.1256 157.502 11.536L153.666 15.4051Z" fill="#263959" fill-opacity="0.2"/>
<path d="M178.241 30.2447C174.054 30.2447 172.292 27.3086 172.292 24.411V1.504H177.379V24.0982C177.379 25.311 177.89 25.9366 179.179 25.9366H181.139V30.2447H178.241ZM166.112 13.7313V30.2447H161.025V13.7313H158.912V9.85676H161.025V7.31032C161.025 4.41265 162.825 1.47656 166.974 1.47656H169.872V5.78465H167.912C166.7 5.78465 166.112 6.4487 166.112 7.62314V9.85676H169.872V13.7313H166.112Z" fill="#263959" fill-opacity="0.2"/>
<path d="M192.867 15.0919C192.28 14.5047 191.495 14.1919 190.48 14.1919C189.465 14.1919 188.718 14.5047 188.131 15.0919C187.072 16.1511 186.957 17.9127 186.957 20.0256C186.957 22.1385 187.072 23.9386 188.131 24.9978C188.718 25.585 189.465 25.8978 190.48 25.8978C191.495 25.8978 192.28 25.585 192.867 24.9978C193.926 23.9441 194.042 22.1385 194.042 20.0256C194.042 17.9127 193.926 16.1511 192.867 15.0919ZM196.824 27.9723C195.573 29.3059 193.498 30.4803 190.48 30.4803C187.461 30.4803 185.431 29.3059 184.18 27.9723C182.341 26.0515 181.869 23.7465 181.869 20.0256C181.869 16.3432 182.341 14.0382 184.18 12.1174C185.431 10.7893 187.467 9.60938 190.48 9.60938C193.493 9.60938 195.567 10.7838 196.824 12.1174C198.662 14.0382 199.134 16.3432 199.134 20.0256C199.134 23.7465 198.662 26.0569 196.824 27.9723Z" fill="#263959" fill-opacity="0.2"/>
<path d="M221.97 30.2445H217.782L213.518 17.4465L209.254 30.2445H205.067L198.805 9.85107H204.205L207.492 22.457L211.641 9.85107H215.362L219.549 22.457L222.837 9.85107H228.198L221.97 30.2445Z" fill="#263959" fill-opacity="0.2"/>
</svg>
